<?xml version="1.0" encoding="UTF-8" standalone="no"?>
<svg width="289px" height="70px" viewBox="0 0 289 70" version="1.1" xmlns="http://www.w3.org/2000/svg" xmlns:xlink="http://www.w3.org/1999/xlink">
    <!-- Generator: Sketch 50.2 (55047) - http://www.bohemiancoding.com/sketch -->
    <title>Search</title>
    <desc>Created with Sketch.</desc>
    <defs></defs>
    <g id="DOCU-/-GUI" stroke="none" stroke-width="1" fill="none" fill-rule="evenodd" fill-opacity="0">
        <g id="DOCUMENTATION" transform="translate(-209.000000, -3624.000000)" fill="#FFFFFF" stroke="#FFFFFF">
            <g id="Group-10" transform="translate(121.000000, 3373.000000)">
                <path d="M113.65,319.9 C102.4,319.9 94.75,315.13 89.17,307.93 L97.81,301.18 C101.68,307.39 106.9,310.72 113.56,310.72 C120.85,310.72 125.44,306.04 125.44,300.19 C125.44,293.44 118.24,291.28 110.68,288.85 C101.77,285.97 92.14,282.37 92.14,270.31 C92.14,260.32 101.05,252.4 113.2,252.4 C123.19,252.4 129.4,256.27 134.44,262.12 L126.43,268.06 C123.46,263.47 119.05,261.04 113.2,261.04 C106.54,261.04 102.22,265 102.22,270.13 C102.22,276.43 109.15,278.5 116.71,281.02 C125.71,284.08 135.52,287.95 135.52,300.19 C135.52,310.27 127.24,319.9 113.65,319.9 Z M166.59,319.9 C152.37,319.9 142.83,309.73 142.83,296.68 C142.83,283.45 153,273.1 166.23,273.1 C179.55,273.1 189.36,282.73 189.36,296.05 L189.36,299.83 L152.1,299.83 C153.36,306.76 158.76,311.35 166.59,311.35 C172.71,311.35 177.39,308.11 179.73,303.25 L187.65,307.66 C183.69,315.04 176.58,319.9 166.59,319.9 Z M166.23,281.56 C159.57,281.56 154.35,285.7 152.55,291.64 L179.55,291.64 C178.11,285.16 173.16,281.56 166.23,281.56 Z M217.73,319.9 C206.3,319.9 195.32,310.81 195.32,296.5 C195.32,282.1 206.03,273.1 217.82,273.1 C223.76,273.1 229.43,275.71 232.76,279.85 L232.76,274 L242.39,274 L242.39,319 L232.76,319 L232.76,312.79 C229.34,317.2 223.67,319.9 217.73,319.9 Z M219.08,311.08 C227.27,311.08 233.3,304.51 233.3,296.41 C233.3,288.4 227.27,281.83 219.08,281.83 C211.07,281.83 204.86,288.22 204.86,296.41 C204.86,304.6 211.07,311.08 219.08,311.08 Z M251.86,319 L251.86,274 L261.49,274 L261.49,280.93 C263.83,276.52 267.97,274 273.91,274 L279.22,274 L279.22,283.18 L272.47,283.18 C264.64,283.18 261.58,287.32 261.58,296.68 L261.58,319 L251.86,319 Z M306.42,319.9 C293.1,319.9 282.93,309.46 282.93,296.5 C282.93,283.27 293.28,273.1 306.42,273.1 C316.41,273.1 324.33,278.77 327.75,286.87 L319.11,290.56 C316.86,285.34 312.27,282.1 306.42,282.1 C298.41,282.1 292.38,288.49 292.38,296.5 C292.38,304.42 298.5,310.9 306.6,310.9 C312.72,310.9 317.22,307.12 319.29,302.08 L328.02,305.77 C324.42,314.05 316.95,319.9 306.42,319.9 Z M334.79,319 L334.79,253.3 L344.33,253.3 L344.33,279.67 C347.39,275.71 352.34,273.1 358.19,273.1 C369.53,273.1 376.46,280.48 376.46,292.72 L376.46,319 L366.65,319 L366.65,293.62 C366.65,286.15 363.05,281.47 355.76,281.47 C349.37,281.47 344.42,286.33 344.42,294.25 L344.42,319 L334.79,319 Z" id="Search"></path>
            </g>
        </g>
    </g>
</svg>