<?xml version="1.0" encoding="UTF-8" standalone="no"?>
<svg width="272px" height="108px" viewBox="0 0 272 108" version="1.1" xmlns="http://www.w3.org/2000/svg" xmlns:xlink="http://www.w3.org/1999/xlink">
    <!-- Generator: Sketch 50.2 (55047) - http://www.bohemiancoding.com/sketch -->
    <title>Page 1</title>
    <desc>Created with Sketch.</desc>
    <defs></defs>
    <g id="3-Case-Studies" stroke="none" stroke-width="1" fill="none" fill-rule="evenodd">
        <g id="Schumacher---Desktop-HD" transform="translate(-865.000000, -13003.000000)">
            <g id="DATA-STRATEGY" transform="translate(0.000000, 12758.000000)">
                <g id="Page-1" transform="translate(856.000000, 244.000000)">
                    <path d="M87.27855,92.0691 C87.27855,95.6718736 84.3588736,98.59155 80.7561,98.59155 C77.1541625,98.59155 74.23365,95.6718736 74.23365,92.0691 C74.23365,88.4663264 77.1541625,85.54665 80.7561,85.54665 C84.3588736,85.54665 87.27855,88.4663264 87.27855,92.0691" id="Fill-1" fill="#FFF8BF"></path>
                    <path d="M30.6831,43.6531 L80.6401,92.8561 L140.4971,109.3941" id="Stroke-5" stroke="#000000" stroke-linecap="round" stroke-linejoin="round" stroke-dasharray="0,9.794"></path>
                    <path d="M281.0185,57.019 C281.0185,48.734435 274.302671,42.0186056 266.018106,42.0186056 C257.734329,42.0186056 251.0185,48.734435 251.0185,57.019 C251.0185,65.303565 257.734329,72.0193944 266.018106,72.0193944 C274.302671,72.0193944 281.0185,65.303565 281.0185,57.019" id="Fill-10" fill="#FFF8BF"></path>
                    <path d="M9.019,90.4353 L149.574,4.1153" id="Stroke-15" stroke="#000000" stroke-linecap="round" stroke-linejoin="round" stroke-dasharray="0,9.997"></path>
                    <path d="M155.5,1.5 L265.5,56.5" id="Stroke-19" stroke="#000000" stroke-linecap="round" stroke-linejoin="round" stroke-dasharray="0,10.135"></path>
                </g>
            </g>
        </g>
    </g>
</svg>