<svg width="109" height="42" xmlns="http://www.w3.org/2000/svg"><path d="M17.205 2.83l-3.206 3.15c-.944-1.015-2.28-1.655-4.025-1.655-3.028 0-5.2 2.26-5.2 5.552 0 3.63 2.404 5.66 5.2 5.66 2.69 0 4.257-1.193 4.773-3.418h-4.595V8.65h9.065c.072.498.09.961.09 1.424 0 6.033-4.31 9.574-9.173 9.574-5.628 0-10.01-3.88-10.01-9.77C.125 4.147 4.293.09 10.17.09c3.01 0 5.396 1.032 7.035 2.74zM35.3 19.31H21.301V.444h4.506v14.682H35.3zm20.429-9.433c0 5.642-4.132 9.788-9.956 9.788s-9.956-4.146-9.956-9.788c0-5.641 4.132-9.788 9.956-9.788 5.842 0 9.956 4.164 9.956 9.788zm-15.21 0c0 3.24 2.19 5.464 5.254 5.464 3.081 0 5.254-2.243 5.254-5.464 0-3.239-2.19-5.463-5.254-5.463-3.064 0-5.254 2.224-5.254 5.463zM65.81.445c4.773 0 7.248 1.869 7.248 5.339 0 1.869-1.086 3.31-2.6 3.986 1.674.588 2.992 2.207 2.992 4.13 0 3.47-2.386 5.41-7.177 5.41h-8.585V.444h8.122zm-3.616 3.79v3.72h3.509c1.62 0 2.671-.463 2.671-1.869 0-1.37-1.05-1.85-2.671-1.85h-3.509zm0 7.475v3.826h3.865c1.745 0 2.743-.516 2.743-1.922 0-1.37-1.015-1.904-2.743-1.904h-3.865zm31.186 7.6h-4.809l-1.424-3.97h-7.499l-1.424 3.97h-4.702L80.77.444h5.38l7.23 18.864zm-12.27-8.028h4.577L83.39 4.93l-2.28 6.353zm27.57 8.028h-14V.444h4.506v14.682h9.493v4.182zm-87.61 7.563l-3.954 2.26c-.98-1.602-2.53-2.491-4.488-2.491-2.975 0-5.201 2.242-5.201 5.463 0 3.506 2.422 5.464 5.2 5.464 1.924 0 3.474-.872 4.56-2.474l3.687 2.616c-1.728 2.58-4.595 4.182-8.21 4.182-5.825 0-9.939-4.075-9.939-9.788s4.114-9.788 9.938-9.788c3.616.018 6.804 1.708 8.407 4.556zm6.251 14.682h-4.506V22.691h4.506zm17.472-14.682h-5.592v14.682h-4.506V26.873h-5.593V22.69h15.691zm6.359 14.682h-4.506V22.691h4.506zm17.294-15.341l-9.28 11.283h9.28v4.058H53.182v-3.524l9.261-11.283H53.2v-4.057h15.246v3.523zM84.92 41.555H70.458V22.691h14.409v4.057h-9.885v3.257h9.315v4.04h-9.315v3.452h9.956v4.058zm19.36 0h-4.328L91.35 30.041v11.514h-4.506V22.691h4.31l8.602 11.514V22.691h4.524v18.864zm4.595-1.655c0 .943-.783 1.708-1.745 1.708-.997 0-1.763-.783-1.763-1.708 0-.943.766-1.726 1.763-1.726.962.018 1.745.783 1.745 1.726zm-.463 0a1.31 1.31 0 0 0-1.3-1.317c-.748 0-1.318.587-1.318 1.317s.57 1.317 1.318 1.317a1.3 1.3 0 0 0 1.3-1.317zm-.552-.285c0 .25-.178.445-.499.48l.5.588h-.446l-.463-.587h-.125v.587h-.374V39.1h.748c.428 0 .66.214.66.516zm-1.015-.196v.392h.374c.16 0 .267-.053.267-.196 0-.124-.107-.196-.267-.196h-.374z" fill="#717171" fill-rule="evenodd"/></svg>