<svg width="62" height="62" xmlns="http://www.w3.org/2000/svg"><g fill="none"><g fill="#FEFFFE"><path d="M28.744 1.574c5.631-.46 11.389.788 16.334 3.514C53.51 9.632 59.486 18.495 60.334 28.06c.64 5.895-.62 11.97-3.487 17.154-2.87 5.223-7.36 9.548-12.704 12.193a28.973 28.973 0 0 1-13.612 3.079c-6.434-.054-12.804-2.356-17.841-6.352-4.334-3.439-7.687-8.1-9.523-13.323-2.862-8.034-2.02-17.32 2.347-24.66 2.931-5.087 7.451-9.227 12.737-11.774 3.286-1.572 6.86-2.544 10.493-2.804zm-5.216 2.804c-5.078 1.371-9.82 4.359-12.831 8.723-2.029 2.87-3.196 6.267-3.795 9.706-.285 2.147-.403 4.488.67 6.45.497.974 1.364 1.71 1.791 2.721.407.897.118 2.111-.756 2.623-.82.588-1.98.363-2.722-.25-1.07-.839-1.523-2.208-1.751-3.5-.452-2.911.134-5.856.876-8.665-.58.241-.496 1.045-.715 1.554-1.268 4.917-1.259 10.173.13 15.064 1.314 4.671 3.994 9.01 7.864 11.984 2.915 2.306 6.487 3.617 10.102 4.327 2.18.367 4.551.513 6.595-.48 1.013-.507 1.772-1.391 2.765-1.929.835-.435 1.923-.292 2.577.397.755.753.768 2.044.154 2.887-.663.902-1.731 1.404-2.786 1.695-2.326.582-4.76.32-7.087-.103-.853-.135-1.66-.514-2.531-.512.466.461 1.15.542 1.751.722a29.825 29.825 0 0 0 13.994.039c5.266-1.266 10.248-4.23 13.376-8.72 2.027-2.787 3.143-6.117 3.833-9.462.367-2.471.552-5.264-.948-7.418-.699-1.028-1.82-2.017-1.596-3.39.096-1.283 1.532-2.094 2.712-1.677 1.542.5 2.263 2.152 2.578 3.617.599 3.035.003 6.153-.798 9.092a.434.434 0 0 0 .387-.352c1.383-4.315 1.623-8.97.825-13.424-.916-5.22-3.329-10.312-7.343-13.858-2.409-2.197-5.378-3.746-8.517-4.602-2.615-.777-5.445-1.315-8.144-.646-1.328.29-2.36 1.221-3.424 2.002-.901.695-2.344.742-3.157-.118-.732-.779-.665-2.068-.033-2.888.839-1.105 2.227-1.617 3.55-1.855 2.11-.314 4.268-.108 6.351.308.826.142 1.598.522 2.439.584-.174-.146-.345-.309-.566-.378-5.095-1.645-10.67-1.707-15.82-.268z"/><path d="M24.225 14.82c1.138-.599 2.594-.779 3.755-.146.93.532 1.293 1.684 1.2 2.701-.164 2.02-1.14 3.881-2.367 5.459-1.326 1.603-2.961 3.023-4.92 3.783.15.626.621 1.293 1.33 1.289 1.24.045 2.315-.738 3.206-1.517.64-.487.675-1.34.974-2.027.437-1.075 1.03-2.221 2.113-2.765.508-.27 1.283-.322 1.633.22.383.73.036 1.567-.331 2.229-.502.959-1.296 1.71-1.927 2.573-.238.802-.281 1.645-.296 2.476.876-.387 1.663-.94 2.489-1.42 1.437-.928 2.928-1.794 4.261-2.869.154-.519-.056-1.085-.032-1.624-.082-2.611.82-5.288 2.6-7.219 1.107-1.167 2.774-1.99 4.404-1.579.978.178 1.744.972 2.02 1.907.348 1.41-.136 2.884-.877 4.085-1.278 1.999-3.136 3.525-5.017 4.93.251.626.61 1.336 1.285 1.568.969-.186 1.954-.45 2.945-.253.663.139 1.459.337 1.783.998.3.645-.273 1.304-.862 1.505-1.25.408-2.575.177-3.853.08-1.52.363-2.843 1.37-3.79 2.594-1.473 1.935-1.928 4.496-1.608 6.869.305 1.969 1.294 3.952 3.033 5.022 1.957 1.253 4.778.987 6.4-.704 1.53-1.58 2.014-4.093 1.161-6.122-.361-.891-1.138-1.652-2.112-1.804-1.137-.256-2.488.484-2.653 1.692-.165.929.487 1.699 1.038 2.364.425.44.476 1.253-.052 1.633-.819.56-1.954.167-2.606-.483-1.609-1.589-1.558-4.456-.017-6.078 1.96-2.248 5.861-2.291 7.865-.077 2.143 2.373 2.413 6.177.765 8.897-1.237 2.135-3.466 3.677-5.916 4.025-2.665.396-5.544-.45-7.417-2.425-3.664-3.732-3.606-10.293-.11-14.116.934-1.118 2.168-1.914 3.406-2.652a30.143 30.143 0 0 0-.833-1.064 77.35 77.35 0 0 1-7.51 4.784c-.438.16-.359.689-.423 1.062-.23 3.186-.502 6.507-2.086 9.354-1.072 2.012-2.692 3.855-4.865 4.683-1.723.65-3.808.708-5.389-.34-1.513-.949-2.2-2.845-2.085-4.572.24-2.197 1.49-4.18 3.078-5.671 2.18-1.991 4.823-3.368 7.418-4.736.528-.294 1.103-.517 1.575-.897.174-.476.2-.987.249-1.485-1.345.813-3.044 1.466-4.591.843-1.264-.487-2.051-1.697-2.454-2.937-1.193-.128-2.394-.603-3.154-1.566-1.326-1.59-1.41-4.009-.452-5.801.32-.646 1.04-.993 1.744-.95.137.277.394.553.3.89-.21 1.163-.618 2.371-.232 3.55.19.805.858 1.447 1.686 1.558.176-1.907.546-3.821 1.444-5.535.844-1.667 1.998-3.284 3.677-4.189zm1.122 1.866c-1.132.77-1.821 2-2.417 3.197-.64 1.351-1.157 2.803-1.215 4.309.432-.191.84-.44 1.19-.76 1.417-1.233 2.655-2.702 3.485-4.395.292-.613.545-1.308.378-1.993-.215-.556-.966-.703-1.421-.358zm14.642.588c-1.323 1.54-2.05 3.582-2.027 5.61 1.491-1.23 2.866-2.673 3.793-4.383.266-.547.618-1.44-.056-1.84-.615-.316-1.308.149-1.71.613zM19.937 36.951c-1.3 1.167-2.568 2.527-3.04 4.252-.227.926-.28 2.094.498 2.784.82.749 2.057.526 3.005.17 1.828-.704 2.931-2.474 3.675-4.194a23.89 23.89 0 0 0 1.624-6.704 25.858 25.858 0 0 0-5.762 3.692z"/></g><g fill="#717171"><path d="M28.752.087a30.844 30.844 0 0 1 17.665 4.032c4.247 2.449 7.918 5.903 10.576 10.025 3.3 5.04 5.046 11.074 4.995 17.098-.039 6.296-2.043 12.569-5.705 17.695-3.714 5.258-9.115 9.308-15.21 11.38-5.413 1.873-11.345 2.167-16.93.915-5.858-1.305-11.3-4.386-15.461-8.708C4.27 47.956 1.285 42.01.372 35.717c-.897-5.604-.155-11.45 2.035-16.68 2.032-4.865 5.342-9.177 9.485-12.43C16.695 2.819 22.647.51 28.752.087zm-.008 1.487c-3.633.26-7.207 1.232-10.493 2.804-5.286 2.547-9.806 6.687-12.737 11.774-4.366 7.34-5.209 16.626-2.347 24.66 1.836 5.224 5.189 9.884 9.523 13.323 5.037 3.996 11.407 6.298 17.841 6.352a28.973 28.973 0 0 0 13.612-3.08c5.344-2.644 9.834-6.97 12.704-12.192 2.867-5.184 4.126-11.259 3.487-17.154-.848-9.566-6.823-18.43-15.256-22.973-4.945-2.726-10.703-3.973-16.334-3.514z"/><path d="M23.528 4.378c5.15-1.439 10.725-1.377 15.82.268.221.069.392.232.566.378-.841-.062-1.613-.442-2.439-.584-2.083-.416-4.24-.622-6.352-.308-1.322.238-2.71.75-3.55 1.855-.63.82-.698 2.109.034 2.888.813.86 2.256.813 3.157.118 1.064-.78 2.096-1.712 3.424-2.002 2.699-.669 5.53-.131 8.144.646 3.14.856 6.108 2.405 8.517 4.602 4.014 3.546 6.427 8.637 7.343 13.858.798 4.454.558 9.109-.825 13.424a.434.434 0 0 1-.387.352c.801-2.939 1.397-6.057.798-9.092-.315-1.465-1.036-3.117-2.578-3.617-1.18-.417-2.616.394-2.712 1.677-.225 1.373.897 2.362 1.596 3.39 1.5 2.154 1.315 4.947.948 7.418-.69 3.345-1.806 6.675-3.833 9.463-3.128 4.49-8.11 7.453-13.376 8.719a29.825 29.825 0 0 1-13.994-.04c-.6-.18-1.285-.26-1.751-.72.871-.003 1.678.376 2.53.51 2.329.424 4.762.686 7.088.104 1.055-.29 2.123-.793 2.786-1.695.614-.843.601-2.134-.154-2.887-.654-.69-1.742-.832-2.577-.397-.993.538-1.752 1.422-2.765 1.93-2.044.992-4.415.846-6.595.479-3.615-.71-7.187-2.021-10.102-4.327-3.87-2.975-6.55-7.313-7.863-11.984-1.39-4.89-1.4-10.147-.131-15.064.219-.51.135-1.313.715-1.554-.742 2.81-1.328 5.754-.876 8.665.228 1.292.681 2.661 1.751 3.5.742.613 1.901.838 2.722.25.874-.512 1.163-1.726.756-2.623-.427-1.011-1.294-1.747-1.79-2.721-1.074-1.962-.956-4.303-.67-6.45.598-3.439 1.765-6.836 3.794-9.706 3.012-4.364 7.753-7.352 12.83-8.723zm.697 10.442c-1.679.905-2.833 2.522-3.677 4.189-.898 1.714-1.268 3.628-1.444 5.535-.828-.11-1.495-.753-1.686-1.559-.386-1.178.022-2.386.232-3.55.094-.336-.163-.612-.3-.889-.704-.043-1.423.304-1.744.95-.959 1.792-.874 4.21.452 5.8.76.964 1.961 1.44 3.154 1.567.403 1.24 1.19 2.45 2.454 2.937 1.547.623 3.246-.03 4.59-.843-.048.498-.074 1.01-.248 1.485-.472.38-1.047.603-1.575.897-2.595 1.368-5.238 2.745-7.418 4.736-1.588 1.49-2.838 3.474-3.078 5.671-.116 1.727.572 3.623 2.085 4.573 1.581 1.047 3.666.989 5.39.339 2.172-.828 3.792-2.671 4.864-4.683 1.584-2.847 1.856-6.168 2.086-9.354.064-.373-.015-.901.424-1.062a77.35 77.35 0 0 0 7.509-4.784c.285.35.566.702.833 1.064-1.238.738-2.472 1.534-3.407 2.652-3.495 3.823-3.553 10.384.11 14.116 1.874 1.976 4.753 2.82 7.418 2.425 2.45-.348 4.68-1.89 5.916-4.025 1.648-2.72 1.378-6.524-.765-8.897-2.004-2.214-5.906-2.171-7.865.077-1.541 1.622-1.592 4.49.017 6.078.652.65 1.787 1.043 2.606.483.528-.38.477-1.193.052-1.633-.55-.665-1.203-1.435-1.038-2.364.165-1.208 1.516-1.948 2.653-1.692.974.152 1.751.913 2.112 1.804.853 2.029.37 4.543-1.16 6.122-1.623 1.691-4.444 1.957-6.401.704-1.739-1.07-2.728-3.053-3.033-5.022-.32-2.373.135-4.934 1.607-6.869.948-1.225 2.27-2.23 3.791-2.594 1.278.097 2.602.328 3.853-.08.589-.2 1.162-.86.862-1.505-.324-.66-1.12-.86-1.783-.998-.991-.197-1.976.067-2.945.253-.676-.232-1.034-.942-1.285-1.568 1.881-1.405 3.74-2.931 5.017-4.93.741-1.2 1.225-2.675.876-4.085-.275-.935-1.041-1.729-2.019-1.907-1.63-.41-3.297.412-4.404 1.579-1.78 1.931-2.682 4.608-2.6 7.219-.024.54.186 1.105.032 1.624-1.333 1.075-2.824 1.94-4.261 2.87-.826.48-1.613 1.032-2.49 1.42.016-.832.059-1.675.297-2.477.63-.863 1.425-1.614 1.927-2.573.367-.662.714-1.499.331-2.23-.35-.54-1.125-.488-1.633-.219-1.083.544-1.676 1.69-2.113 2.765-.3.688-.333 1.54-.974 2.027-.891.779-1.967 1.562-3.207 1.517-.708.004-1.18-.663-1.33-1.289 1.96-.76 3.595-2.18 4.921-3.783 1.227-1.578 2.203-3.44 2.368-5.459.092-1.017-.272-2.169-1.2-2.7-1.162-.634-2.618-.454-3.756.145z"/><path d="M25.347 16.686c.455-.345 1.206-.198 1.421.358.167.685-.086 1.38-.378 1.993-.83 1.693-2.068 3.162-3.484 4.394-.35.32-.759.57-1.191.76.058-1.505.575-2.957 1.215-4.308.596-1.196 1.285-2.427 2.417-3.197zm14.642.588c.402-.464 1.095-.929 1.71-.612.674.399.322 1.292.056 1.84-.927 1.71-2.302 3.152-3.793 4.382-.022-2.028.704-4.07 2.027-5.61zM19.937 36.951c1.748-1.47 3.686-2.733 5.762-3.692a23.89 23.89 0 0 1-1.624 6.704c-.744 1.72-1.847 3.49-3.675 4.194-.948.356-2.184.579-3.005-.17-.777-.69-.725-1.858-.498-2.784.472-1.725 1.74-3.085 3.04-4.252z"/></g></g></svg>