<svg width="134" height="28" xmlns="http://www.w3.org/2000/svg" xmlns:xlink="http://www.w3.org/1999/xlink"><defs><path id="a" d="M0 .222h7.255v21.316H0z"/></defs><g fill="none" fill-rule="evenodd"><path d="M132.889 6.494c.575 0 1.04.461 1.04 1.038s-.465 1.039-1.04 1.039a1.036 1.036 0 0 1-1.037-1.04c0-.576.465-1.037 1.037-1.037M130.49 4.51c.21.21.314.462.314.756v4.826c0 .294-.104.546-.314.755-.209.21-.46.315-.753.315a.971.971 0 0 1-.734-.315c-.215-.21-.293-.461-.293-.755V5.266c0-.294.078-.546.293-.755a.976.976 0 0 1 .734-.315c.293 0 .544.105.753.315m-3.14-2.098c.209.21.313.461.313.755v9.022c0 .293-.104.546-.314.755-.21.21-.46.315-.753.315a.976.976 0 0 1-.734-.315c-.214-.209-.293-.462-.293-.755V3.168c0-.294.079-.545.293-.755a.976.976 0 0 1 .734-.315c.293 0 .543.105.753.315M122.721.315a.976.976 0 0 1 .734-.315c.293 0 .544.105.753.315.21.21.314.461.314.755v13.217c0 .295-.105.547-.314.756a1.02 1.02 0 0 1-.753.316.972.972 0 0 1-.734-.316c-.214-.209-.293-.46-.293-.756V1.07c0-.294.079-.544.293-.755m-1.654 0c.21.21.314.461.314.755v12.903c0 2.073-.733 3.846-2.193 5.308-1.466 1.47-3.23 2.199-5.298 2.199-2.074 0-3.837-.73-5.304-2.2-1.46-1.461-2.193-3.234-2.193-5.307 0-2.077.738-3.844 2.198-5.314 1.466-1.463 3.236-2.197 5.31-2.197 2.067 0 3.847.734 5.308 2.197.02.022.078.038.078.06v-7.65c0-.293.079-.543.294-.754a.97.97 0 0 1 .733-.315c.293 0 .543.105.753.315m-1.827 13.658c0-1.484-.524-2.748-1.565-3.797-1.047-1.044-2.31-1.568-3.79-1.568-1.476 0-2.744.524-3.785 1.568-1.042 1.049-1.566 2.313-1.566 3.797 0 1.485.524 2.749 1.566 3.794 1.04 1.048 2.309 1.568 3.784 1.568 1.482 0 2.744-.52 3.791-1.568 1.04-1.045 1.565-2.309 1.565-3.794m-11.669-6.189c0 .293-.105.545-.314.755a1 1 0 0 1-.744.314.983.983 0 0 1-.45-.105A5.218 5.218 0 0 0 104 8.345c-1.483 0-2.105.524-3.152 1.568-1.042 1.05-1.456 2.313-1.456 3.798v6.346c0 .295-.104.546-.313.755-.21.21-.462.316-.755.316a.974.974 0 0 1-.733-.316c-.214-.21-.293-.46-.293-.755V7.365c0-.294.08-.546.293-.757a.978.978 0 0 1 .733-.314c.293 0 .545.105.755.314.209.211.313.463.313.757v1.09c1.048-1.505 2.592-2.255 4.665-2.255 1.042 0 1.89.178 2.764.535.162.063.31.157.444.283.205.216.305.472.305.766M96.252 19.721v.336c0 .294-.105.547-.313.756a1.03 1.03 0 0 1-.754.316c-.3 0-.523-.107-.734-.316-.214-.21-.293-.462-.293-.756v-1.09c-1.57 1.5-3.203 2.25-5.276 2.25-2.068 0-3.76-.73-5.22-2.198a8.232 8.232 0 0 1-.964-1.154c-.822-1.216-1.235-2.602-1.235-4.154 0-1.558.413-2.942 1.235-4.153.278-.405.598-.794.965-1.16 1.46-1.463 3.23-2.198 5.297-2.198 2.067 0 3.738.735 5.198 2.197 1.466 1.47 2.094 3.236 2.094 5.314v6.01zm-1.936-6.01c0-1.484-.525-2.749-1.571-3.797-1.042-1.044-2.303-1.569-3.785-1.569-1.481 0-2.744.525-3.784 1.57-1.048 1.047-1.572 2.312-1.572 3.796 0 1.485.524 2.749 1.572 3.793 1.04 1.05 2.303 1.568 3.784 1.568 1.482 0 2.743-.519 3.785-1.568 1.046-1.044 1.57-2.308 1.57-3.793z" fill="#717171"/><path d="M81.395 17.94l.063.083c.12.178.177.372.177.592 0 .3-.109.562-.33.793-1.387 1.207-3.014 1.809-4.883 1.809-2.073 0-3.837-.73-5.303-2.198-1.46-1.463-2.194-3.237-2.194-5.308 0-2.076.734-3.845 2.194-5.313 1.466-1.463 3.23-2.198 5.303-2.198 1.87 0 3.496.604 4.884 1.81.246.225.372.504.372.834a.993.993 0 0 1-.178.587 3.14 3.14 0 0 1-.062.09.838.838 0 0 1-.074.078c-.209.21-.461.315-.753.315a1.05 1.05 0 0 1-.688-.243c-1-.88-2.166-1.326-3.5-1.326-1.483 0-2.75.524-3.791 1.569-1.043 1.048-1.566 2.313-1.566 3.797 0 1.485.523 2.748 1.566 3.792 1.041 1.05 2.308 1.569 3.79 1.569 1.335 0 2.502-.435 3.492-1.311.183-.142.402-.215.654-.215.293 0 .544.104.754.315a.823.823 0 0 1 .073.078m-13.412 1.478v.641c0 .294-.105.546-.314.755a1.03 1.03 0 0 1-.754.315.977.977 0 0 1-.734-.315c-.214-.21-.292-.461-.292-.755v-7.957c0-1.039-.33-1.92-1.063-2.653-.733-.736-1.58-1.102-2.617-1.102-1.036 0-1.885.366-2.617 1.102-.734.733-1.032 1.614-1.032 2.653v7.957c0 .294-.105.546-.315.755a1.03 1.03 0 0 1-.753.315.975.975 0 0 1-.733-.315c-.216-.21-.294-.461-.294-.755v-7.957c0-1.039-.476-1.92-1.208-2.653-.734-.736-1.727-1.102-2.76-1.102-1.036 0-1.963.366-2.696 1.102-.733.733-1.188 1.614-1.188 2.653v7.957c0 .294-.105.546-.314.755-.209.21-.461.315-.754.315a.98.98 0 0 1-.733-.315c-.215-.21-.293-.461-.293-.755V7.407c0-.294.105-.547.313-.756.21-.21.461-.315.754-.315.3 0 .526.106.734.315.214.21.293.462.293.756v.147c1.048-.903 2.403-1.353 3.837-1.353 1.624 0 3.104.576 4.251 1.73.24.242.46.494.66.766.194-.272.414-.524.654-.766 1.152-1.154 2.54-1.73 4.163-1.73 1.622 0 2.967.576 4.119 1.73 1.153 1.154 1.686 2.545 1.686 4.17v7.316zm-22.511.173v.468c0 .293-.105.545-.314.755-.21.209-.461.316-.754.316-.299 0-.523-.107-.733-.316-.215-.21-.294-.462-.294-.755V12.1c0-1.039-.33-1.92-1.062-2.654-.733-.735-1.58-1.101-2.617-1.101-1.036 0-1.885.366-2.617 1.101-.734.735-1.033 1.615-1.033 2.654v7.957c0 .293-.105.545-.314.755a1.03 1.03 0 0 1-.753.316.974.974 0 0 1-.733-.316c-.214-.21-.294-.462-.294-.755V12.1c0-1.039-.476-1.92-1.208-2.654-.734-.735-1.727-1.101-2.76-1.101-1.037 0-1.963.366-2.696 1.101-.733.735-1.189 1.615-1.189 2.654v7.958c0 .293-.104.545-.313.755-.21.209-.461.316-.754.316-.298 0-.523-.107-.733-.316-.215-.21-.293-.462-.293-.755V7.407c0-.293.104-.545.314-.756.209-.21.46-.316.753-.316.3 0 .525.106.734.316.214.205.292.457.292.744v.159C27.15 6.65 28.504 6.2 29.94 6.2c1.624 0 3.105.577 4.251 1.73.24.242.461.494.66.768.193-.274.414-.526.654-.767 1.151-1.154 2.54-1.73 4.163-1.73 1.622 0 2.967.576 4.118 1.73 1.154 1.154 1.687 2.544 1.687 4.17v7.489zm-22.512.131v.336c0 .294-.104.547-.313.756a1.03 1.03 0 0 1-.754.316c-.299 0-.523-.107-.734-.316-.214-.21-.292-.462-.292-.756v-1.09c-1.572 1.5-3.204 2.25-5.279 2.25-2.066 0-3.757-.73-5.217-2.198-1.467-1.463-2.2-3.236-2.2-5.308 0-2.078.733-3.844 2.2-5.314C11.831 6.935 13.6 6.2 15.67 6.2c2.066 0 3.737.735 5.198 2.197 1.465 1.47 2.094 3.236 2.094 5.314v6.01zm-1.936-6.01c0-1.484-.525-2.749-1.571-3.797-1.042-1.044-2.303-1.569-3.784-1.569-1.482 0-2.745.525-3.785 1.57-1.048 1.047-1.57 2.312-1.57 3.796 0 1.485.522 2.749 1.57 3.793 1.04 1.05 2.303 1.568 3.785 1.568 1.48 0 2.742-.519 3.784-1.568 1.046-1.044 1.571-2.308 1.571-3.793z" fill="#717171"/><g transform="translate(0 6.113)"><mask id="b" fill="#fff"><use xlink:href="#a"/></mask><path d="M7.255 4.55v10.554c0 1.776-.502 3.299-1.759 4.553-1.25 1.257-2.644 1.882-4.418 1.882-.293 0-.55-.106-.76-.314A1.041 1.041 0 0 1 0 20.468c0-.292.088-.544.297-.758a.98.98 0 0 1 .734-.316c1.188 0 2.147-.415 2.978-1.255.838-.832 1.152-1.844 1.152-3.035V1.293c0-.294.105-.544.314-.756.209-.21.461-.315.754-.315.298 0 .524.106.733.315.215.212.293.462.293.756v3.258z" fill="#717171" mask="url(#b)"/></g></g></svg>