<?xml version="1.0" encoding="UTF-8" standalone="no"?>
<svg width="10px" height="18px" viewBox="0 0 10 18" version="1.1" xmlns="http://www.w3.org/2000/svg" xmlns:xlink="http://www.w3.org/1999/xlink">
    <!-- Generator: Sketch 50.2 (55047) - http://www.bohemiancoding.com/sketch -->
    <title>Icon / Facebook</title>
    <desc>Created with Sketch.</desc>
    <defs></defs>
    <g id="7-News" stroke="none" stroke-width="1" fill="none" fill-rule="evenodd">
        <g id="News-Story-Copy" transform="translate(-1406.000000, -346.000000)" fill="#3C3C3C">
            <g id="SHARE-Copy" transform="translate(1382.000000, 278.000000)">
                <g id="Icon-/-Facebook-Copy-3" transform="translate(19.000000, 67.000000)">
                    <path d="M10.9075,7.41419937 C10.9075,7.38619937 10.9055,5.92819937 10.909,5.21969937 C10.91,5.06519937 10.9285,4.91069937 10.943,4.75669937 C10.948,4.70419937 10.9625,4.65169937 10.976,4.60069937 C11.0615,4.28519937 11.269,4.09519937 11.5805,4.01219937 C11.7655,3.96269937 11.9545,3.94969937 12.145,3.95019937 C12.754,3.95219937 13.3625,3.95469937 13.9715,3.95719937 C14.0035,3.95719937 14.0355,3.95719937 14.075,3.95719937 C14.099,3.01019937 14.1225,2.06919937 14.1465,1.12519937 C14.1215,1.12019937 14.102,1.11369937 14.082,1.11169937 C13.879,1.09219937 13.677,1.06819937 13.4735,1.05619937 C13.1435,1.03619937 12.8125,1.02119937 12.482,1.00869937 C12.0165,0.990199368 11.5515,0.997699368 11.0895,1.06569937 C10.6845,1.12519937 10.291,1.22469937 9.9145,1.38619937 C8.9755,1.78819937 8.312,2.45769937 7.95,3.41769937 C7.7665,3.90419937 7.695,4.41019937 7.6955,4.92869937 C7.6965,5.72969937 7.6955,7.38569937 7.6955,7.41969937 L5.5,7.41969937 L5.5,10.4586994 L7.6955,10.4586994 L7.696,18.7736994 C7.8385,18.7896994 10.856,18.7826994 10.91,18.7656994 L10.91,10.4566994 L14.019,10.4566994 C14.0665,9.44219937 14.1155,8.43369937 14.1615,7.41869937 L10.9075,7.41419937 Z" id="Fill-1"></path>
                </g>
            </g>
        </g>
    </g>
</svg>