<?xml version="1.0" encoding="UTF-8" standalone="no"?>
<svg width="18px" height="16px" viewBox="0 0 18 16" version="1.1" xmlns="http://www.w3.org/2000/svg" xmlns:xlink="http://www.w3.org/1999/xlink">
    <!-- Generator: Sketch 50.2 (55047) - http://www.bohemiancoding.com/sketch -->
    <title>Icon / Facebook Copy</title>
    <desc>Created with Sketch.</desc>
    <defs></defs>
    <g id="7-News" stroke="none" stroke-width="1" fill="none" fill-rule="evenodd">
        <g id="News-Story-Copy" transform="translate(-1402.000000, -401.000000)" fill="#3C3C3C">
            <g id="SHARE-Copy" transform="translate(1382.000000, 278.000000)">
                <g id="Icon-/-LinkedIn-Copy" transform="translate(19.000000, 121.000000)">
                    <path d="M2.38882421,17.3842029 L2.38882421,7.19392094 L5.60473638,7.19392094 L5.60473638,17.3842029 L2.38882421,17.3842029 Z M14.3911094,7.09632539 C16.6766881,7.09632539 18.4725,8.5620478 18.4725,11.718025 L18.4725,17.3841134 L14.8258613,17.3841134 L14.8258613,12.1111804 C14.8258613,10.7308876 14.2551376,9.78847773 13.0009766,9.78847773 C12.0415702,9.78847773 11.5079703,10.4245038 11.259285,11.0372714 C11.1662517,11.2573311 11.1810118,11.5637149 11.1810118,11.8700988 L11.1810118,17.3841134 L7.56791881,17.3841134 C7.56791881,17.3841134 7.61488276,8.04320801 7.56791881,7.19427876 L11.1810118,7.19427876 L11.1810118,8.79328933 C11.3943623,8.09419744 12.5487808,7.09632539 14.3911094,7.09632539 Z M3.93693481,2.38409714 C5.1235572,2.38409714 5.85306384,3.14491308 5.87632217,4.15038882 C5.87632217,5.13797353 5.1235572,5.91981143 3.91457102,5.91981143 L3.89131269,5.91981143 C2.72705408,5.91981143 1.9725,5.14065718 1.9725,4.15351975 C1.9725,3.14670218 2.74941786,2.38409714 3.93693481,2.38409714 Z" id="Combined-Shape"></path>
                </g>
            </g>
        </g>
    </g>
</svg>