<?xml version="1.0" encoding="UTF-8" standalone="no"?>
<svg width="16px" height="14px" viewBox="0 0 16 14" version="1.1" xmlns="http://www.w3.org/2000/svg" xmlns:xlink="http://www.w3.org/1999/xlink">
    <!-- Generator: Sketch 50.2 (55047) - http://www.bohemiancoding.com/sketch -->
    <title>Icon / Facebook Copy 2</title>
    <desc>Created with Sketch.</desc>
    <defs></defs>
    <g id="7-News" stroke="none" stroke-width="1" fill="none" fill-rule="evenodd">
        <g id="News-Story-Copy" transform="translate(-1403.000000, -456.000000)" fill="#3C3C3C">
            <g id="SHARE-Copy" transform="translate(1382.000000, 278.000000)">
                <g id="Icon-/-Twitter-Copy" transform="translate(19.000000, 175.000000)">
                    <path d="M16.9495315,3.78380626 C16.3543856,4.14505903 15.6967613,4.40778831 14.9938804,4.5483645 C14.4339786,3.9355965 13.6337757,3.55271662 12.7478654,3.55271662 C11.0497371,3.55271662 9.67160981,4.96568755 9.67160981,6.70827159 C9.67160981,6.9557818 9.69804294,7.19568248 9.7509092,7.42677211 C7.19330367,7.29500696 4.92606206,6.04023431 3.40735862,4.12863845 C3.14222632,4.59642474 2.99083658,5.1391049 2.99083658,5.71702923 C2.99083658,6.81120059 3.53391724,7.77721132 4.35975228,8.3431206 C3.85632132,8.32790152 3.38092549,8.18452182 2.96520445,7.94982767 L2.96520445,7.98827586 C2.96520445,9.51779285 4.02613415,10.7937921 5.43510005,11.082554 C5.17717679,11.1566469 4.90483545,11.1934931 4.62408358,11.1934931 C4.42583511,11.1934931 4.23239266,11.1746695 4.04455724,11.1378233 C4.43664866,12.3909939 5.57247223,13.3037379 6.91936032,13.3281685 C5.86644067,14.1748297 4.53877666,14.6794621 3.0973701,14.6794621 C2.84905888,14.6794621 2.60355118,14.6650441 2.36325,14.6362079 C3.72495667,15.5301283 5.3433851,16.0527834 7.08036211,16.0527834 C12.7418579,16.0527834 15.8365365,11.2451578 15.8365365,7.07473088 C15.8365365,6.93735871 15.8341335,6.80038704 15.8285265,6.66581838 C16.4300804,6.2204602 16.952335,5.66536448 17.36325,5.03257138 C16.8121593,5.2832856 16.2186154,5.45309844 15.5962353,5.52919381 C16.231832,5.1391049 16.7196433,4.52072987 16.9495315,3.78380626" id="Fill-1"></path>
                </g>
            </g>
        </g>
    </g>
</svg>