<?xml version="1.0" encoding="UTF-8" standalone="no"?>
<svg width="768px" height="149px" viewBox="0 0 768 149" version="1.1" xmlns="http://www.w3.org/2000/svg" xmlns:xlink="http://www.w3.org/1999/xlink">
    <!-- Generator: Sketch 50.2 (55047) - http://www.bohemiancoding.com/sketch -->
    <title>Page 1</title>
    <desc>Created with Sketch.</desc>
    <defs>
        <polygon id="path-1" points="0 0.215 38.0379 0.215 38.0379 38.2532 0 38.2532"></polygon>
    </defs>
    <g id="3-Case-Studies" stroke="none" stroke-width="1" fill="none" fill-rule="evenodd">
        <g id="Global-Citizen" transform="translate(-469.000000, -18022.000000)">
            <g id="DATA-STRATEGY" transform="translate(0.000000, 17419.000000)">
                <g id="Page-1" transform="translate(467.000000, 600.000000)">
                    <g id="Group-3" transform="translate(0.000000, 0.785000)">
                        <mask id="mask-2" fill="white">
                            <use xlink:href="#path-1"></use>
                        </mask>
                        <g id="Clip-2"></g>
                        <path d="M36.01895,19.2332531 C36.01895,9.84519245 28.4069606,2.23320308 19.0180062,2.23320308 C9.63083937,2.23320308 2.01885,9.84519245 2.01885,19.2332531 C2.01885,28.6222076 9.63083937,36.2341969 19.0180062,36.2341969 C28.4069606,36.2341969 36.01895,28.6222076 36.01895,19.2332531" id="Fill-1" fill="#FFE4E4" mask="url(#mask-2)"></path>
                    </g>
                    <path d="M272.4344,141.6734 C272.4344,136.0884 267.9074,131.5624 262.3234,131.5624 C256.7384,131.5624 252.2104,136.0884 252.2104,141.6734 C252.2104,147.2574 256.7384,151.7844 262.3234,151.7844 C267.9074,151.7844 272.4344,147.2574 272.4344,141.6734" id="Fill-4" fill="#FFE4E4"></path>
                    <path d="M26.786,26.2535 L147.444,123.1055 L263.15,141.6215 L319.698,108.2085 L491.899,21.3235 L773.136,22.5745" id="Stroke-8" stroke="#000000" stroke-linecap="round" stroke-linejoin="round" stroke-dasharray="0,9.960000000000001"></path>
                </g>
            </g>
        </g>
    </g>
</svg>