<?xml version="1.0" encoding="UTF-8" standalone="no"?>
<svg width="202px" height="77px" viewBox="0 0 202 77" version="1.1" xmlns="http://www.w3.org/2000/svg" xmlns:xlink="http://www.w3.org/1999/xlink">
    <!-- Generator: Sketch 50.2 (55047) - http://www.bohemiancoding.com/sketch -->
    <title>banner-3-3</title>
    <desc>Created with Sketch.</desc>
    <defs></defs>
    <g id="3-Case-Studies" stroke="none" stroke-width="1" fill="none" fill-rule="evenodd">
        <g id="Global-Citizen" transform="translate(-193.000000, -4175.000000)">
            <g id="Photos-2" transform="translate(193.000000, 3689.000000)">
                <g id="Logo-/-gc_logo_Color" transform="translate(0.000000, 486.000000)">
                    <g id="gc_logo">
                        <path d="M31.8843137,5.18771186 L25.9431373,10.9627119 C24.1937908,9.1029661 21.7183007,7.92838983 18.4836601,7.92838983 C12.872549,7.92838983 8.84575163,12.0720339 8.84575163,18.1080508 C8.84575163,24.7639831 13.301634,28.4834746 18.4836601,28.4834746 C23.4676471,28.4834746 26.3722222,26.2974576 27.3294118,22.2190678 L18.8137255,22.2190678 L18.8137255,15.8567797 L35.6140523,15.8567797 C35.7460784,16.770339 35.779085,17.6186441 35.779085,18.4669492 C35.779085,29.5275424 27.7915033,36.020339 18.780719,36.020339 C8.35065359,36.020339 0.231045752,28.9076271 0.231045752,18.1080508 C0.231045752,7.60211864 7.95457516,0.163135593 18.846732,0.163135593 C24.4248366,0.163135593 28.8477124,2.05550847 31.8843137,5.18771186 L31.8843137,5.18771186 Z" id="Shape" fill="#000000"></path>
                        <polygon id="Shape" fill="#000000" points="65.4189542 35.4004237 39.475817 35.4004237 39.475817 0.815677966 47.8264706 0.815677966 47.8264706 27.7330508 65.4189542 27.7330508"></polygon>
                        <path d="M103.277451,18.1080508 C103.277451,28.4508475 95.6199346,36.0529661 84.8267974,36.0529661 C74.0336601,36.0529661 66.3761438,28.4508475 66.3761438,18.1080508 C66.3761438,7.76525424 74.0336601,0.163135593 84.8267974,0.163135593 C95.6529412,0.163135593 103.277451,7.79788136 103.277451,18.1080508 L103.277451,18.1080508 Z M75.0898693,18.1080508 C75.0898693,24.0461864 79.1496732,28.1245763 84.8267974,28.1245763 C90.5369281,28.1245763 94.5637255,24.0135593 94.5637255,18.1080508 C94.5637255,12.1699153 90.5039216,8.09152542 84.8267974,8.09152542 C79.1496732,8.09152542 75.0898693,12.1699153 75.0898693,18.1080508 L75.0898693,18.1080508 Z" id="Shape" fill="#DA1E2C"></path>
                        <path d="M121.95915,0.815677966 C130.804902,0.815677966 135.39281,4.24152542 135.39281,10.6038136 C135.39281,14.029661 133.379412,16.6724576 130.573856,17.9122881 C133.676471,18.9889831 136.118954,21.9580508 136.118954,25.4817797 C136.118954,31.8440678 131.696078,35.4004237 122.81732,35.4004237 L106.90817,35.4004237 L106.90817,0.815677966 L121.95915,0.815677966 L121.95915,0.815677966 Z M115.258824,7.76525424 L115.258824,14.584322 L121.761111,14.584322 C124.764706,14.584322 126.712092,13.7360169 126.712092,11.1584746 C126.712092,8.64618644 124.764706,7.76525424 121.761111,7.76525424 L115.258824,7.76525424 L115.258824,7.76525424 Z M115.258824,21.4686441 L115.258824,28.4834746 L122.421242,28.4834746 C125.655882,28.4834746 127.504248,27.5372881 127.504248,24.9597458 C127.504248,22.4474576 125.622876,21.4686441 122.421242,21.4686441 L115.258824,21.4686441 L115.258824,21.4686441 Z" id="Shape" fill="#000000"></path>
                        <path d="M173.053268,35.4004237 L164.141503,35.4004237 L161.50098,28.1245763 L147.605229,28.1245763 L144.964706,35.4004237 L136.25098,35.4004237 L149.684641,0.815677966 L159.652614,0.815677966 L173.053268,35.4004237 L173.053268,35.4004237 Z M150.311765,20.6855932 L158.794444,20.6855932 L154.536601,9.03771186 L150.311765,20.6855932 L150.311765,20.6855932 Z" id="Shape" fill="#000000"></path>
                        <polygon id="Shape" fill="#000000" points="201.405882 35.4004237 175.462745 35.4004237 175.462745 0.815677966 183.813399 0.815677966 183.813399 27.7330508 201.405882 27.7330508 201.405882 35.4004237"></polygon>
                        <path d="M39.046732,49.2669492 L31.719281,53.4105932 C29.9039216,50.4741525 27.0323529,48.8427966 23.401634,48.8427966 C17.8895425,48.8427966 13.7637255,52.9538136 13.7637255,58.859322 C13.7637255,65.2868644 18.2526144,68.8758475 23.401634,68.8758475 C26.9663399,68.8758475 29.8379085,67.2771186 31.8513072,64.340678 L38.6836601,69.1368644 C35.4820261,73.8677966 30.1679739,76.8042373 23.4676471,76.8042373 C12.6745098,76.8042373 5.05,69.3326271 5.05,58.859322 C5.05,48.3860169 12.6745098,40.9144068 23.4676471,40.9144068 C30.1679739,40.9470339 36.0761438,44.0466102 39.046732,49.2669492 L39.046732,49.2669492 Z" id="Shape" fill="#000000"></path>
                        <polygon id="Shape" fill="#000000" points="50.6320261 76.184322 42.2813725 76.184322 42.2813725 41.5995763 50.6320261 41.5995763"></polygon>
                        <polygon id="Shape" fill="#000000" points="83.0114379 49.2669492 72.6473856 49.2669492 72.6473856 76.184322 64.296732 76.184322 64.296732 49.2669492 53.9326797 49.2669492 53.9326797 41.5995763 83.0114379 41.5995763"></polygon>
                        <polygon id="Shape" fill="#000000" points="94.7947712 76.184322 86.4441176 76.184322 86.4441176 41.5995763 94.7947712 41.5995763"></polygon>
                        <polygon id="Shape" fill="#000000" points="126.844118 48.0597458 109.647712 68.745339 126.844118 68.745339 126.844118 76.184322 98.5575163 76.184322 98.5575163 69.7241525 115.720915 49.0385593 98.5905229 49.0385593 98.5905229 41.5995763 126.844118 41.5995763 126.844118 48.0597458"></polygon>
                        <polygon id="Shape" fill="#000000" points="157.375163 76.184322 130.573856 76.184322 130.573856 41.5995763 157.276144 41.5995763 157.276144 49.0385593 138.957516 49.0385593 138.957516 55.009322 156.219935 55.009322 156.219935 62.415678 138.957516 62.415678 138.957516 68.745339 157.40817 68.745339 157.40817 76.184322"></polygon>
                        <polygon id="Shape" fill="#000000" points="193.253268 76.184322 185.23268 76.184322 169.290523 55.0745763 169.290523 76.184322 160.939869 76.184322 160.939869 41.5995763 168.927451 41.5995763 184.869608 62.709322 184.869608 41.5995763 193.253268 41.5995763 193.253268 76.184322"></polygon>
                        <path d="M201.768954,73.15 C201.768954,74.8792373 200.316667,76.2822034 198.534314,76.2822034 C196.685948,76.2822034 195.266667,74.8466102 195.266667,73.15 C195.266667,71.4207627 196.685948,69.9851695 198.534314,69.9851695 C200.316667,70.0177966 201.768954,71.4207627 201.768954,73.15 L201.768954,73.15 Z M200.910784,73.15 C200.910784,71.8122881 199.821569,70.7355932 198.501307,70.7355932 C197.115033,70.7355932 196.058824,71.8122881 196.058824,73.15 C196.058824,74.4877119 197.115033,75.5644068 198.501307,75.5644068 C199.854575,75.5644068 200.910784,74.4877119 200.910784,73.15 L200.910784,73.15 Z M199.887582,72.6279661 C199.887582,73.0847458 199.557516,73.4436441 198.963399,73.5088983 L199.887582,74.5855932 L199.062418,74.5855932 L198.204248,73.5088983 L197.973203,73.5088983 L197.973203,74.5855932 L197.280065,74.5855932 L197.280065,71.6817797 L198.66634,71.6817797 C199.458497,71.6817797 199.887582,72.0733051 199.887582,72.6279661 L199.887582,72.6279661 Z M198.006209,72.2690678 L198.006209,72.9868644 L198.699346,72.9868644 C198.996405,72.9868644 199.194444,72.8889831 199.194444,72.6279661 C199.194444,72.3995763 198.996405,72.2690678 198.699346,72.2690678 L198.006209,72.2690678 L198.006209,72.2690678 Z" id="Shape" fill="#000000"></path>
                    </g>
                </g>
            </g>
        </g>
    </g>
</svg>