<svg width="402" height="112" xmlns="http://www.w3.org/2000/svg" xmlns:xlink="http://www.w3.org/1999/xlink"><defs><path id="a" d="M47.343 88.367V.178H0v88.189z"/><path id="c" d="M12.17 3.437V.48H.43v2.957z"/><path id="e" d="M0 .118V50.06h33.257V.118H0z"/><path id="g" d="M48.534.465H0v76.83h48.534z"/></defs><g fill="none" fill-rule="evenodd"><path fill="#FFF" fill-rule="nonzero" d="M39.115 34.694L1.873 97.124l5.093 6.387 5.852-.342h30.525l3.064-2.794-.52-34.943v-31.08l-2.775-.289z"/><path d="M39.114 36.716v57.42a2.032 2.032 0 0 1-2.022 2.035l-35.22-.138V34.886l35.445-.192a2.035 2.035 0 0 1 1.797 2.022" fill="#D2232D" fill-rule="nonzero"/><path d="M32.238 56.071a.84.84 0 0 0-.074-.143c-2.226-4.27-6.672-7.197-11.792-7.215h-.096c-5.114.019-9.559 2.94-11.787 7.205a.862.862 0 0 0-.079.155 13.384 13.384 0 0 0-1.444 6.056c0 7.399 5.992 13.418 13.358 13.418 7.366 0 13.359-6.02 13.359-13.418 0-2.18-.524-4.236-1.445-6.058" fill="#FFF" fill-rule="nonzero"/><path d="M27.481 61.237a15.445 15.445 0 0 0-.752-3.944h4.124a11.58 11.58 0 0 1 1.014 3.944h-4.386zm3.273 5.945h-4.212a15.56 15.56 0 0 0 .916-4.16h4.41a11.573 11.573 0 0 1-1.114 4.16zm-8.262 6.372a19.268 19.268 0 0 0 3.272-4.587h3.92a11.593 11.593 0 0 1-7.192 4.587zm-1.279-4.587h2.502a18.161 18.161 0 0 1-2.502 3.328v-3.328zm0-5.945h4.461a13.876 13.876 0 0 1-1.061 4.16h-3.4v-4.16zm0-5.729h3.618c.45 1.188.771 2.508.867 3.944h-4.485v-3.944zm0-5.653a17.869 17.869 0 0 1 2.806 3.868h-2.806V51.64zm8.625 3.868h-3.814c-.933-2.013-2.147-3.606-3.164-4.726a11.605 11.605 0 0 1 6.978 4.726zm-10.402 0h-2.8a17.954 17.954 0 0 1 2.8-3.861v3.861zm0 5.729H14.95a13.76 13.76 0 0 1 .87-3.944h3.616v3.944zm0 5.945H16.03a13.923 13.923 0 0 1-1.057-4.16h4.462v4.16zm0 5.119a18.016 18.016 0 0 1-2.51-3.334h2.51v3.334zm-8.471-3.334h3.92a19.268 19.268 0 0 0 3.272 4.587 11.587 11.587 0 0 1-7.192-4.587zm-1.071-1.785c-.614-1.275-1-2.68-1.113-4.16h4.41c.12 1.514.454 2.905.916 4.16H9.894zm-.097-9.889h4.122a15.507 15.507 0 0 0-.752 3.944H8.781a11.58 11.58 0 0 1 1.016-3.944zm7.993-6.511c-1.019 1.12-2.232 2.713-3.165 4.726h-3.814a11.603 11.603 0 0 1 6.979-4.726zm14.374 5.146c-2.226-4.271-6.673-7.197-11.792-7.215h-.002l-.046-.001-.044.001h-.003c-5.115.018-9.56 2.94-11.788 7.205a.893.893 0 0 0-.078.155 13.374 13.374 0 0 0-1.445 6.056c0 7.399 5.992 13.418 13.358 13.418 7.366 0 13.36-6.02 13.36-13.418 0-2.179-.524-4.237-1.446-6.057a.894.894 0 0 0-.074-.144z" fill="#443785" fill-rule="nonzero"/><g transform="translate(0 15.819)"><mask id="b" fill="#fff"><use xlink:href="#a"/></mask><path d="M45.47 84.423a2.056 2.056 0 0 1-2.044 2.062H7.086l-1.122-1.11h34.302c2.15 0 3.9-1.764 3.9-3.931V20.91c0-.748-.213-1.445-.574-2.041a2.057 2.057 0 0 1 1.878 2.054v63.499zM2.932 82.099l34.156.135c2.15 0 3.9-1.757 3.9-3.917v-57.42c0-.716-.197-1.385-.533-1.963h.337a2.047 2.047 0 0 1 1.5 1.977v60.533c0 1.13-.909 2.05-2.026 2.05H4.313l-1.381-1.395zM1.873 19.067l24.632-.133h11.108a2.035 2.035 0 0 1 1.502 1.962v57.42a2.033 2.033 0 0 1-2.023 2.037l-35.219-.14V19.068zM26.014 4.39l6.55 5.899 6.55-5.899v12.59H26.015V4.39zm17.412 12.59h-2.438V.177l-8.423 7.586L24.14.178V16.98H.936a.938.938 0 0 0-.936.941v64.195l6.32 6.25h37.106c2.16 0 3.917-1.769 3.917-3.943V20.924c0-2.174-1.757-3.944-3.917-3.944z" fill="#443785" fill-rule="nonzero" mask="url(#b)"/></g><path fill="#FBE7C3" fill-rule="nonzero" d="M26.014 20.21l6.55 5.899 6.551-5.898v12.587H26.014z"/><g fill-rule="nonzero"><path d="M163.637 50.733l3.193 10.783 2.279 7.5a.928.928 0 0 1-1.083 1.173l-9.083-1.44-18.488-2.533-2.352-7.904-2.353-7.905 14.121-12.219 6.76-6.102.044-.041a.93.93 0 0 1 1.547.386l2.197 7.54 3.218 10.762z" fill="#FBE7C3"/><path d="M138.768 68.699a1.02 1.02 0 0 1-.689 1.267l-7.272 2.158-13.213 3.92-1.58.47a1.023 1.023 0 0 1-1.27-.687l-1.396-4.694-2.736-9.191-1.362-4.577c-.16-.54.149-1.108.689-1.269l22.064-6.547c.54-.16 1.11.148 1.27.687l2.6 8.737v.001l2.78 9.34.115.385z" fill="#D2232D"/><path d="M164.73 66.093c-.153.046-.32.06-.489.037l-21.415-2.934a1.16 1.16 0 1 1 .316-2.301l21.415 2.934a1.16 1.16 0 0 1 .173 2.264m-45.117 4.972a2.002 2.002 0 0 1-3.838 1.139 1.999 1.999 0 0 1 1.349-2.485 2.003 2.003 0 0 1 2.49 1.346m73.59-27.964l-19.731 5.855a1.162 1.162 0 0 1-.663-2.227l19.732-5.855a1.161 1.161 0 1 1 .662 2.227m.844 23.814a1.162 1.162 0 0 1-.886-.092l-18.099-9.792a1.16 1.16 0 0 1-.468-1.574 1.163 1.163 0 0 1 1.577-.469l18.098 9.792a1.16 1.16 0 0 1-.222 2.135M171.065 40.71a1.162 1.162 0 0 1-1.354-1.665l9.806-18.073a1.163 1.163 0 0 1 2.045 1.106l-9.807 18.073a1.154 1.154 0 0 1-.69.56" fill="#443785"/><path fill="#FFF" d="M119.697 77.624l11.62 18.967 4.434-.903-2.108-11.225-1.551-5.936 2.585-1.97.387-4.923-11.055 4.313zm-17.71-14.478l5.037 11.252 5.943-.765-4.215-13.119z"/><path d="M163.637 50.733l3.193 10.783 2.279 7.5a.928.928 0 0 1-1.083 1.173l-9.083-1.44-18.488-2.533-2.352-7.904-2.353-7.905 14.121-12.219 6.76-6.102.044-.041a.93.93 0 0 1 1.547.386l2.197 7.54 3.218 10.762zm-24.87 17.965a1.02 1.02 0 0 1-.687 1.268l-7.272 2.158-13.214 3.921-1.58.468a1.022 1.022 0 0 1-1.27-.686l-1.396-4.694-2.735-9.191-1.362-4.578a1.019 1.019 0 0 1 .687-1.267l22.066-6.548c.54-.16 1.109.148 1.269.687l2.6 8.737 2.78 9.34.115.385zm-6.372 8.763l-.925-3.11 3.116-.925a4.568 4.568 0 0 1-2.19 4.035zm2.329 17.322l-3.039.901c-.26.078-.557-.46-.578-.499l-10.05-17.745 8.183-2.428 3.787 12.723c.25.838.503 1.677.756 2.515.357 1.18.715 2.36 1.06 3.542.107.367.114.922-.12.99zm-24.39-21.544l-1.79.531a1.165 1.165 0 0 1-1.447-.782l-2.735-9.191a1.163 1.163 0 0 1 .783-1.445l1.79-.53a1.164 1.164 0 0 1 1.448.781l2.735 9.191a1.162 1.162 0 0 1-.783 1.445zm55.533-23.167l-3.218-10.758-2.196-7.538a3.262 3.262 0 0 0-5.401-1.396l-6.722 6.069-13.612 11.778a3.35 3.35 0 0 0-3.377-.904l-22.065 6.547a3.346 3.346 0 0 0-2.255 4.156l.426 1.433a3.44 3.44 0 0 0-1.173.136l-1.79.531a3.486 3.486 0 0 0-2.351 4.332l2.735 9.191a3.494 3.494 0 0 0 4.338 2.348l1.792-.532a3.46 3.46 0 0 0 1.056-.526l.46 1.55a3.352 3.352 0 0 0 4.162 2.251l2.093-.621 10.304 18.194c.734 1.344 2.02 1.97 3.276 1.598l3.037-.902c1.705-.506 2.14-2.328 1.69-3.868-.348-1.189-.707-2.376-1.066-3.563a595.57 595.57 0 0 1-.754-2.505l-2.184-7.337a6.89 6.89 0 0 0 3.79-6.986l1.88-.557a3.347 3.347 0 0 0 2.375-3.542l17.486 2.396 8.975 1.42a3.254 3.254 0 0 0 3.76-4.12l-2.28-7.497-3.19-10.778z" fill="#443785"/></g><path d="M251.962 35.134a6.557 6.557 0 0 0-.974 1.288c-1.595 2.785-2.448 5.846-2.536 9.096a12.08 12.08 0 0 0 3.575 8.587 12.134 12.134 0 0 0 8.63 3.57l.152-.001a12.662 12.662 0 0 0 9.068-3.979c2.129-2.272 3.19-5.16 2.99-8.132-.129-2.353-.56-4.294-1.34-5.988-1.983 2.358-4.282 3.634-4.396 3.696l-2.44 1.335.89-2.631c1.015-3-.387-5.01-2.01-7.339-1.607-2.307-3.412-4.898-2.844-8.653-.58.476-1.063.872-1.233 1.009-2.92 2.853-2.07 4.708-.894 7.27 1.215 2.65 2.728 5.95-.533 10.473l-.682.948-.896-.75c-.137-.115-3.364-2.849-4.13-6.236-.308-1.277-.398-2.53-.397-3.563m8.873 24.707h-.178c-3.839 0-7.45-1.493-10.165-4.204a14.248 14.248 0 0 1-4.21-10.148c.1-3.64 1.048-7.044 2.822-10.142 1.338-2.338 3.538-3.455 3.63-3.501l1.934-.966-.381 2.125c-.003.024-.444 2.597.185 5.2.367 1.618 1.578 3.203 2.515 4.204 1.627-2.91.697-4.938-.36-7.245-1.251-2.73-2.67-5.822 1.391-9.76l.094-.082c.152-.119 2.423-1.987 3.91-3.213l2.838-2.336-1.834 5.77c-.826 3.331.706 5.529 2.327 7.855 1.295 1.859 2.72 3.904 2.744 6.539.869-.73 1.865-1.727 2.66-2.956l.92-1.426.91 1.435c1.484 2.348 2.26 5.03 2.445 8.442.241 3.562-1.027 7.027-3.57 9.743-2.736 2.922-6.6 4.617-10.627 4.666" fill="#443785" fill-rule="nonzero"/><path d="M271.85 15.314a1.081 1.081 0 0 1-.613-1.906l7.328-6.196a1.086 1.086 0 0 1 1.529.126c.387.456.33 1.14-.127 1.526l-7.326 6.198a1.085 1.085 0 0 1-.79.252" fill="#D2232D" fill-rule="nonzero"/><g transform="translate(272.816 21.119)"><mask id="d" fill="#fff"><use xlink:href="#c"/></mask><path d="M10.995 3.433l-9.569-.79a1.084 1.084 0 1 1 .179-2.16l9.57.791a1.083 1.083 0 1 1-.18 2.159" fill="#D2232D" fill-rule="nonzero" mask="url(#d)"/></g><path d="M264.093 11.717a1.084 1.084 0 0 1-.991-1.169l.792-9.554a1.084 1.084 0 0 1 2.163.179l-.792 9.553a1.085 1.085 0 0 1-1.172.99m-12.131 23.418a6.557 6.557 0 0 0-.974 1.288c-1.595 2.785-2.448 5.846-2.536 9.096a12.08 12.08 0 0 0 3.575 8.587 12.134 12.134 0 0 0 8.63 3.57l.152-.001a12.662 12.662 0 0 0 9.068-3.979c2.129-2.272 3.19-5.16 2.99-8.132-.129-2.353-.56-4.294-1.34-5.988-1.983 2.358-4.282 3.634-4.396 3.696l-2.44 1.335.89-2.631c1.015-3-.387-5.01-2.01-7.339-1.607-2.307-3.412-4.898-2.844-8.653-.58.476-1.063.872-1.233 1.009-2.92 2.853-2.07 4.708-.894 7.27 1.215 2.65 2.728 5.95-.533 10.473l-.682.948-.896-.75c-.137-.115-3.364-2.849-4.13-6.236-.308-1.277-.398-2.53-.397-3.563" fill="#D2232D" fill-rule="nonzero"/><path d="M263.463 82.49l-.949 26.065-.003.136a.195.195 0 0 1-.059.141.194.194 0 0 1-.14.059h-3.164c-.11 0-.2-.089-.2-.232l-.839-26.17h5.355z" fill="#FBE7C3" fill-rule="nonzero"/><path fill="#FFF" fill-rule="nonzero" d="M246.282 62.86l11.826-.904 15.139.452 3.39.452v2.5l.54 2.674h-6.323l-1.031 2.037-1.499 3.4-1.227 2.178.273 2.72-.545 2.721-5.095.544-6.488-.544-1.09-2.449.136-2.992-.953-2.041-1.364-3.13-.544-1.695-2.975-1.297-2.17-.68z"/><g transform="translate(244.77 60.998)"><mask id="f" fill="#fff"><use xlink:href="#e"/></mask><path d="M31.086 4.996c0 .19-.075.371-.213.509a.669.669 0 0 1-.51.213l-27.47-.002a.732.732 0 0 1-.723-.722l.001-1.988a.73.73 0 0 1 .714-.721h.009l27.47.001a.73.73 0 0 1 .722.722v1.988zm-9.137 7.867a8.284 8.284 0 0 1-5.93 2.452 8.337 8.337 0 0 1-5.93-2.453A8.308 8.308 0 0 1 7.7 8.025h16.636a8.308 8.308 0 0 1-2.388 4.838zm-1.005 6.463h-6.895l-3.722-.001v-3.506a10.497 10.497 0 0 0 5.692 1.662h.131c2-.025 3.912-.605 5.56-1.662v3.507h-.766zm-2.25 2.166l-.95 26.065-.003.137a.195.195 0 0 1-.058.14.194.194 0 0 1-.14.06h-3.166c-.11 0-.2-.089-.2-.232l-.838-26.17h5.355zM30.364.119L2.893.118h-.036A2.895 2.895 0 0 0 0 3.006v1.988a2.894 2.894 0 0 0 2.893 2.888h2.612a10.44 10.44 0 0 0 2.652 6.092V19.6c0 .505.196.98.555 1.338.357.356.832.553 1.339.553h1.116l.838 26.12.002.084a2.37 2.37 0 0 0 2.37 2.365h3.194a2.353 2.353 0 0 0 1.646-.693 2.351 2.351 0 0 0 .694-1.652l.954-26.223h1.145a1.882 1.882 0 0 0 1.315-.553 1.88 1.88 0 0 0 .555-1.337v-5.627a10.441 10.441 0 0 0 2.653-6.091H30.4a2.877 2.877 0 0 0 2.009-.848 2.873 2.873 0 0 0 .849-2.04V3.008A2.895 2.895 0 0 0 30.363.12z" fill="#443785" fill-rule="nonzero" mask="url(#f)"/></g><path d="M398.436 57.777c0 .3-.01.606-.027.907-.302 5.032-3.444 10.214-8.004 13.203l-.074.049c-.513.336-1.154.753-1.523 1.487-.338.675-.325 1.384-.314 1.902.023 1.125.044 1.815.065 2.477.024.747.046 1.458.068 2.73l.055 3.276c.008.406.014 1.29.021 2.173l.012 1.407c-2.97 1.006-7.405 1.688-11.131 1.688-3.6 0-7.099-.657-10.41-1.954v-7.775c0-.462.03-.976.062-1.52.118-1.985.25-4.235-.94-5.98-.6-.881-1.449-1.48-2.199-2.008l-.288-.204c-2.623-1.875-4.726-4.294-6.08-6.997-1.189-2.372-1.375-4.668-1.59-7.327-.035-.432-.07-.87-.11-1.313-.263-2.893-.487-5.843-.705-8.696a979.785 979.785 0 0 0-.329-4.278c.01-1.617 1.179-2.93 2.614-2.93h.087l15.904-2.487c-.585 5.373-4.798 9.02-10.646 9.02h-1.2l.438 5.697h1.03c9.528 0 16.712 7.297 16.712 16.974h2.223c0-6.395-2.786-11.866-7.255-15.31a5.553 5.553 0 0 0 1.662.253c2.633 0 4.842-1.806 5.424-4.206a5.555 5.555 0 0 0 4.475 2.272 5.607 5.607 0 0 0 4.862-2.794 5.118 5.118 0 0 0 4.411 2.538 5.17 5.17 0 0 0 2.826-.837l-.126 8.563z" fill="#FBE7C3" fill-rule="nonzero"/><path d="M383.687 26.497a3.84 3.84 0 0 1 2.728-1.126c2.077 0 3.704 1.678 3.705 3.795l-.348 15.68c0 1.804-1.506 3.274-3.357 3.274-1.845 0-3.348-1.514-3.348-3.374l-.486-15.599a3.708 3.708 0 0 1 1.106-2.65m-7.347-3.221c2.173 0 3.941 1.728 3.942 3.824l-.5 19.813c0 1.82-1.543 3.302-3.442 3.302-1.893 0-3.434-1.525-3.434-3.398v-4.488c1.742-2.13 2.746-4.872 2.746-7.975v-1.303l-3.123.48V32.27l-.13-5.142c0-2.123 1.768-3.85 3.941-3.85m-12.732 8.15a3.228 3.228 0 0 1 .962-2.308 3.347 3.347 0 0 1 2.378-.98c1.845 0 3.66 1.406 3.66 3.24l-.204.086.021.824v1.574l-6.745 1.054-.072-3.49zm35.239 13.582v.044c0 1.582-1.413 2.87-3.15 2.87-1.712 0-3.11-1.304-3.138-2.916l.027-12.254c-.002-.172.2-.738.808-1.307.453-.422 1.22-.926 2.304-.926 1.99 0 3.61 1.497 3.622 3.343l-.473 11.146zm-31.731 3.61c-1.213 0-2.263-.773-2.765-1.891 2.18-.249 4.16-.977 5.855-2.097v.673c0 1.828-1.386 3.315-3.09 3.315" fill="#FBE7C3" fill-rule="nonzero"/><path d="M392.419 84.704c0-2.061-1.682-3.732-3.756-3.732-2.075 0-3.757 1.671-3.757 3.732h-.028c0-2.061-1.682-3.732-3.756-3.732-2.075 0-3.758 1.671-3.758 3.732 0-2.061-1.681-3.732-3.756-3.732-2.074 0-3.756 1.671-3.756 3.732 0-2.061-1.682-3.732-3.757-3.732s-3.756 1.671-3.756 3.732v11.691h30.048l.032-11.691z" fill="#FFF" fill-rule="nonzero"/><path d="M363.624 96.173h27.936l.028-11.284c-.001-1.543-1.191-2.798-2.656-2.798-1.463 0-3.536 1.244-3.536 2.788l.247 1.19h-1.173l.062-1.128c0-1.545-1.705-2.85-3.17-2.85-1.463 0-2.655 1.256-2.655 2.8h-1.929c0-1.544-1.493-2.8-2.957-2.8-1.464 0-3.044 1.2-3.044 2.746l-.925-.133c0-1.544-2.109-2.613-3.573-2.613s-2.655 1.256-2.655 2.8v11.282z" fill="#D2232D" fill-rule="nonzero"/><g transform="translate(352.706 20.664)"><mask id="h" fill="#fff"><use xlink:href="#g"/></mask><path d="M45.875 24.315l-.001.044c0 1.564-1.306 2.837-2.91 2.837-1.584 0-2.875-1.29-2.901-2.883l.025-12.117c-.002-.169.185-.729.746-1.29.418-.42 1.126-.917 2.13-.917 1.84 0 3.337 1.48 3.347 3.305l-.436 11.021zm-28.59-.002v.569c0 1.564-1.306 2.837-2.91 2.837a2.905 2.905 0 0 1-2.602-1.614c2.051-.213 3.915-.835 5.511-1.792zm2.364 5.42a18.321 18.321 0 0 0-2.035-.941c.346-.279.652-.603.916-.96.245.71.628 1.353 1.119 1.901zm26.015 7.398c0 .3-.009.606-.028.907-.301 5.031-3.443 10.213-8.004 13.203l-.073.048c-.515.336-1.154.754-1.522 1.487-.34.675-.326 1.384-.316 1.902.024 1.128.045 1.82.066 2.483.022.704.044 1.383.064 2.525a4.872 4.872 0 0 0-3.374 1.758 4.87 4.87 0 0 0-3.77-1.781 4.87 4.87 0 0 0-3.757 1.764 4.872 4.872 0 0 0-3.757-1.764 4.87 4.87 0 0 0-3.756 1.764 4.873 4.873 0 0 0-3.036-1.705v-1.021c0-.463.03-.977.063-1.52.117-1.985.25-4.236-.94-5.981-.6-.88-1.449-1.478-2.197-2.006l-.29-.205c-2.623-1.874-4.725-4.295-6.08-6.998-1.189-2.372-1.375-4.667-1.59-7.327-.035-.432-.07-.87-.11-1.313-.263-2.882-.486-5.823-.702-8.665-.109-1.436-.218-2.873-.332-4.309.01-1.413 1.007-2.93 2.615-2.93h.087l15.903-2.487c-.585 5.373-4.798 9.02-10.647 9.02H8.982l.438 5.697h1.03c9.528 0 16.712 7.298 16.712 16.974 0 .61.498 1.104 1.112 1.104.614 0 1.111-.494 1.111-1.104 0-6.395-2.786-11.866-7.256-15.31a5.549 5.549 0 0 0 1.662.253c2.634 0 4.842-1.806 5.424-4.205a5.558 5.558 0 0 0 4.476 2.272 5.607 5.607 0 0 0 4.861-2.795 5.12 5.12 0 0 0 4.413 2.538 5.163 5.163 0 0 0 2.825-.837l-.126 8.564zm-6.77 27.366l-.03 10.59H11.035V64.5a2.639 2.639 0 0 1 2.644-2.628 2.639 2.639 0 0 1 2.645 2.628h2.223a2.64 2.64 0 0 1 2.645-2.628A2.64 2.64 0 0 1 23.84 64.5h2.222a2.64 2.64 0 0 1 2.646-2.628 2.64 2.64 0 0 1 2.645 2.628l.028 1.104h2.222V64.5a2.64 2.64 0 0 1 2.646-2.628 2.64 2.64 0 0 1 2.645 2.625zM11.035 10.754A3.222 3.222 0 0 1 12 8.446a3.34 3.34 0 0 1 2.376-.98c1.846 0 3.347 1.492 3.347 3.327h.001v2.417l-6.687 1.045v-3.501zm8.912-4.262c0-2.106 1.723-3.819 3.843-3.819 2.119 0 3.843 1.713 3.843 3.791l-.486 19.647c0 1.805-1.507 3.274-3.357 3.274-1.846 0-3.348-1.511-3.348-3.369v-4.45c1.698-2.113 2.678-4.83 2.678-7.909v-1.29l-3.176.495.003-6.37zm11.014-.663a3.837 3.837 0 0 1 2.729-1.125c2.076 0 3.703 1.677 3.704 3.794l-.349 15.68c0 1.805-1.505 3.274-3.355 3.274-1.847 0-3.348-1.513-3.348-3.374h-.001L29.856 8.48a3.699 3.699 0 0 1 1.106-2.65zm12.003 1.95a5.184 5.184 0 0 0-3.36 1.252l.012-.509c0-3.38-2.604-6.027-5.926-6.027a6.052 6.052 0 0 0-4.276 1.75A6.073 6.073 0 0 0 23.79.465c-3.31 0-6.003 2.647-6.06 5.92a5.553 5.553 0 0 0-3.356-1.128 5.56 5.56 0 0 0-3.951 1.63 5.41 5.41 0 0 0-1.611 3.87v3.846l-4.068.636C2.12 15.292 0 17.586 0 20.42l.004.088c.115 1.448.225 2.895.335 4.344.216 2.85.44 5.799.703 8.697.04.437.075.867.11 1.293.223 2.767.435 5.38 1.815 8.133C4.482 46 6.824 48.698 9.738 50.781l.303.215c.652.46 1.27.894 1.643 1.443.766 1.124.662 2.897.56 4.612a27.837 27.837 0 0 0-.066 1.65v1.2c-1.95.631-3.365 2.453-3.365 4.6v12.794H41.08l.034-12.792V64.5c0-2.03-1.264-3.767-3.052-4.485.008-.055.016-.11.015-.167-.022-1.284-.046-2.002-.069-2.757-.02-.656-.043-1.34-.065-2.457-.006-.304-.013-.682.08-.87.102-.202.435-.42.756-.63l.076-.05c5.125-3.359 8.657-9.213 8.999-14.914.021-.345.031-.694.031-1.023l.178-12.072c.001-.035-.006-.067-.009-.101a5.01 5.01 0 0 0 .042-.592l.436-11.024.001-.043c0-3.052-2.498-5.535-5.57-5.535z" fill="#443785" fill-rule="nonzero" mask="url(#h)"/></g></g></svg>