<svg width="21" height="16" xmlns="http://www.w3.org/2000/svg"><path d="M0 14.204c.158.025.321.041.486.047.166.007.335.01.508.01a8.52 8.52 0 0 0 2.79-.454 8.774 8.774 0 0 0 2.394-1.248c-.913-.013-1.725-.278-2.434-.795-.707-.516-1.194-1.172-1.46-1.966a3.955 3.955 0 0 0 .775.076c.199 0 .388-.013.566-.038.18-.025.36-.057.546-.095a4.203 4.203 0 0 1-2.392-1.37 3.692 3.692 0 0 1-.963-2.524V5.79c.277.15.574.267.893.35a4.6 4.6 0 0 0 .992.141 4.041 4.041 0 0 1-1.34-1.398 3.722 3.722 0 0 1-.506-1.911c0-.353.049-.7.147-1.04.101-.34.236-.655.41-.945a12.069 12.069 0 0 0 1.727 1.626A12.09 12.09 0 0 0 5.184 3.89c.73.358 1.502.645 2.315.86.816.214 1.652.34 2.514.379a6.382 6.382 0 0 1-.07-.436 3.701 3.701 0 0 1 .297-2.013c.219-.487.517-.909.895-1.267a4.238 4.238 0 0 1 2.95-1.164c.597 0 1.159.113 1.688.34.53.228.98.536 1.351.928a8.483 8.483 0 0 0 1.381-.378 9.34 9.34 0 0 0 1.281-.587c-.158.454-.396.87-.715 1.249a4.257 4.257 0 0 1-1.131.945 9.355 9.355 0 0 0 2.404-.625 8.37 8.37 0 0 1-.944 1.106 8.91 8.91 0 0 1-1.143.955c0 .076.003.158.01.247.006.088.01.177.01.264 0 1.312-.259 2.637-.775 3.98a11.275 11.275 0 0 1-2.284 3.64c-1.007 1.084-2.25 1.97-3.726 2.656C10.016 15.657 8.317 16 6.397 16c-.583 0-1.159-.041-1.729-.123a12.634 12.634 0 0 1-1.659-.35 11.23 11.23 0 0 1-1.559-.566A14.31 14.31 0 0 1 0 14.204" fill="#D2D2D2" fill-rule="evenodd"/></svg>