<?xml version="1.0" encoding="UTF-8" standalone="no"?>
<svg width="342px" height="18px" viewBox="0 0 342 18" version="1.1" xmlns="http://www.w3.org/2000/svg" xmlns:xlink="http://www.w3.org/1999/xlink">
    <!-- Generator: Sketch 50.2 (55047) - http://www.bohemiancoding.com/sketch -->
    <title>The page you’re look</title>
    <desc>Created with Sketch.</desc>
    <defs></defs>
    <g id="Page-1" stroke="none" stroke-width="1" fill="none" fill-rule="evenodd">
        <g id="404-Page" transform="translate(-549.000000, -731.000000)" fill="#FFFFFF">
            <path d="M553.73,744 L553.73,732.814 L549.99,732.814 L549.99,731.59 L558.779,731.59 L558.779,732.814 L555.056,732.814 L555.056,744 L553.73,744 Z M560.717,744 L560.717,731.59 L562.009,731.59 L562.009,736.741 C562.604,735.891 563.624,735.33 564.899,735.33 C567.177,735.33 568.588,736.826 568.588,739.274 L568.588,744 L567.262,744 L567.262,739.274 C567.262,737.625 566.412,736.52 564.712,736.52 C563.165,736.52 562.026,737.744 562.026,739.291 L562.026,744 L560.717,744 Z M574.997,744.17 C572.294,744.17 570.526,742.317 570.526,739.818 C570.526,737.268 572.379,735.33 574.929,735.33 C577.377,735.33 579.281,737.013 579.281,739.614 L579.281,740.175 L571.801,740.175 C571.971,741.858 573.297,742.997 574.997,742.997 C576.374,742.997 577.343,742.283 577.87,741.246 L579.009,741.807 C578.227,743.286 576.901,744.17 574.997,744.17 Z M574.929,736.503 C573.399,736.503 572.209,737.54 571.869,738.968 L577.938,738.968 C577.7,737.438 576.578,736.503 574.929,736.503 Z M589.889,744.17 C588.699,744.17 587.475,743.694 586.778,742.708 L586.778,747.91 L585.503,747.91 L585.503,735.5 L586.761,735.5 L586.761,736.894 C587.475,735.891 588.784,735.33 589.889,735.33 C592.422,735.33 594.241,737.319 594.241,739.75 C594.241,742.181 592.388,744.17 589.889,744.17 Z M589.821,742.98 C591.555,742.98 592.915,741.535 592.915,739.75 C592.915,737.965 591.555,736.52 589.821,736.52 C588.002,736.52 586.642,737.982 586.642,739.75 C586.642,741.535 588.002,742.98 589.821,742.98 Z M600.225,744.17 C597.726,744.17 595.873,742.181 595.873,739.75 C595.873,737.319 597.692,735.33 600.225,735.33 C601.313,735.33 602.622,735.891 603.353,736.894 L603.353,735.5 L604.662,735.5 L604.662,744 L603.353,744 L603.353,742.606 C602.622,743.626 601.313,744.17 600.225,744.17 Z M600.293,742.98 C602.112,742.98 603.472,741.535 603.472,739.75 C603.472,737.982 602.112,736.52 600.293,736.52 C598.559,736.52 597.199,737.965 597.199,739.75 C597.199,741.535 598.559,742.98 600.293,742.98 Z M610.969,744.17 C608.47,744.17 606.617,742.181 606.617,739.75 C606.617,737.319 608.436,735.33 610.969,735.33 C612.057,735.33 613.366,735.891 614.097,736.894 L614.097,735.5 L615.406,735.5 L615.406,743.847 C615.406,746.431 613.774,748.148 611.207,748.148 C609.133,748.148 607.824,747.23 607.212,745.802 L608.504,745.377 C608.912,746.346 609.762,746.992 611.207,746.992 C613.06,746.992 614.114,745.7 614.114,743.881 L614.114,742.589 C613.4,743.609 612.074,744.17 610.969,744.17 Z M611.037,742.98 C612.856,742.98 614.216,741.535 614.216,739.75 C614.216,737.982 612.856,736.52 611.037,736.52 C609.303,736.52 607.943,737.965 607.943,739.75 C607.943,741.535 609.303,742.98 611.037,742.98 Z M621.849,744.17 C619.146,744.17 617.378,742.317 617.378,739.818 C617.378,737.268 619.231,735.33 621.781,735.33 C624.229,735.33 626.133,737.013 626.133,739.614 L626.133,740.175 L618.653,740.175 C618.823,741.858 620.149,742.997 621.849,742.997 C623.226,742.997 624.195,742.283 624.722,741.246 L625.861,741.807 C625.079,743.286 623.753,744.17 621.849,744.17 Z M621.781,736.503 C620.251,736.503 619.061,737.54 618.721,738.968 L624.79,738.968 C624.552,737.438 623.43,736.503 621.781,736.503 Z M633.477,747.927 L635.398,743.507 L631.726,735.5 L633.171,735.5 L636.095,741.994 L638.798,735.5 L640.226,735.5 L634.871,747.927 L633.477,747.927 Z M645.955,744.17 C643.507,744.17 641.552,742.249 641.552,739.75 C641.552,737.251 643.507,735.33 645.955,735.33 C648.403,735.33 650.375,737.251 650.375,739.75 C650.375,742.249 648.403,744.17 645.955,744.17 Z M645.955,742.98 C647.689,742.98 649.049,741.535 649.049,739.75 C649.049,737.965 647.689,736.52 645.955,736.52 C644.221,736.52 642.878,737.965 642.878,739.75 C642.878,741.535 644.221,742.98 645.955,742.98 Z M656.053,744.17 C653.571,744.17 652.296,742.674 652.296,740.226 L652.296,735.5 L653.622,735.5 L653.622,740.226 C653.622,741.875 654.472,742.98 656.172,742.98 C657.719,742.98 658.858,741.756 658.858,740.209 L658.858,735.5 L660.167,735.5 L660.167,744 L658.875,744 L658.875,742.742 C658.28,743.609 657.277,744.17 656.053,744.17 Z M662.904,735.058 L662.02,735.058 L662.734,731.59 L664.009,731.59 L662.904,735.058 Z M665.845,744 L665.845,735.5 L667.154,735.5 L667.154,736.724 C667.613,735.942 668.429,735.5 669.517,735.5 L670.571,735.5 L670.571,736.724 L669.517,736.724 C667.8,736.724 667.171,737.625 667.171,739.597 L667.171,744 L665.845,744 Z M676.606,744.17 C673.903,744.17 672.135,742.317 672.135,739.818 C672.135,737.268 673.988,735.33 676.538,735.33 C678.986,735.33 680.89,737.013 680.89,739.614 L680.89,740.175 L673.41,740.175 C673.58,741.858 674.906,742.997 676.606,742.997 C677.983,742.997 678.952,742.283 679.479,741.246 L680.618,741.807 C679.836,743.286 678.51,744.17 676.606,744.17 Z M676.538,736.503 C675.008,736.503 673.818,737.54 673.478,738.968 L679.547,738.968 C679.309,737.438 678.187,736.503 676.538,736.503 Z M687.129,744 L687.129,731.59 L688.455,731.59 L688.455,744 L687.129,744 Z M694.83,744.17 C692.382,744.17 690.427,742.249 690.427,739.75 C690.427,737.251 692.382,735.33 694.83,735.33 C697.278,735.33 699.25,737.251 699.25,739.75 C699.25,742.249 697.278,744.17 694.83,744.17 Z M694.83,742.98 C696.564,742.98 697.924,741.535 697.924,739.75 C697.924,737.965 696.564,736.52 694.83,736.52 C693.096,736.52 691.753,737.965 691.753,739.75 C691.753,741.535 693.096,742.98 694.83,742.98 Z M705.285,744.17 C702.837,744.17 700.882,742.249 700.882,739.75 C700.882,737.251 702.837,735.33 705.285,735.33 C707.733,735.33 709.705,737.251 709.705,739.75 C709.705,742.249 707.733,744.17 705.285,744.17 Z M705.285,742.98 C707.019,742.98 708.379,741.535 708.379,739.75 C708.379,737.965 707.019,736.52 705.285,736.52 C703.551,736.52 702.208,737.965 702.208,739.75 C702.208,741.535 703.551,742.98 705.285,742.98 Z M717.644,744 L714.686,739.886 L712.969,741.637 L712.969,744 L711.677,744 L711.677,731.59 L712.969,731.59 L712.969,740.124 L717.491,735.5 L719.157,735.5 L715.638,739.104 L719.174,744 L717.644,744 Z M720.772,744 L720.772,735.5 L722.098,735.5 L722.098,744 L720.772,744 Z M720.772,734.021 L720.772,731.59 L722.098,731.59 L722.098,734.021 L720.772,734.021 Z M724.376,744 L724.376,735.5 L725.668,735.5 L725.668,736.758 C726.263,735.891 727.283,735.33 728.558,735.33 C730.836,735.33 732.247,736.826 732.247,739.274 L732.247,744 L730.921,744 L730.921,739.274 C730.921,737.625 730.071,736.52 728.371,736.52 C726.824,736.52 725.685,737.744 725.685,739.291 L725.685,744 L724.376,744 Z M738.52,744.17 C736.021,744.17 734.168,742.181 734.168,739.75 C734.168,737.319 735.987,735.33 738.52,735.33 C739.608,735.33 740.917,735.891 741.648,736.894 L741.648,735.5 L742.957,735.5 L742.957,743.847 C742.957,746.431 741.325,748.148 738.758,748.148 C736.684,748.148 735.375,747.23 734.763,745.802 L736.055,745.377 C736.463,746.346 737.313,746.992 738.758,746.992 C740.611,746.992 741.665,745.7 741.665,743.881 L741.665,742.589 C740.951,743.609 739.625,744.17 738.52,744.17 Z M738.588,742.98 C740.407,742.98 741.767,741.535 741.767,739.75 C741.767,737.982 740.407,736.52 738.588,736.52 C736.854,736.52 735.494,737.965 735.494,739.75 C735.494,741.535 736.854,742.98 738.588,742.98 Z M748.907,736.69 L748.907,735.5 L750.369,735.5 L750.369,734.837 C750.369,732.304 751.1,731.59 753.599,731.59 L753.718,731.59 L753.718,732.797 C751.916,732.797 751.695,733.12 751.695,734.854 L751.695,735.5 L753.718,735.5 L753.718,736.69 L751.695,736.69 L751.695,744 L750.369,744 L750.369,736.69 L748.907,736.69 Z M759.566,744.17 C757.118,744.17 755.163,742.249 755.163,739.75 C755.163,737.251 757.118,735.33 759.566,735.33 C762.014,735.33 763.986,737.251 763.986,739.75 C763.986,742.249 762.014,744.17 759.566,744.17 Z M759.566,742.98 C761.3,742.98 762.66,741.535 762.66,739.75 C762.66,737.965 761.3,736.52 759.566,736.52 C757.832,736.52 756.489,737.965 756.489,739.75 C756.489,741.535 757.832,742.98 759.566,742.98 Z M765.941,744 L765.941,735.5 L767.25,735.5 L767.25,736.724 C767.709,735.942 768.525,735.5 769.613,735.5 L770.667,735.5 L770.667,736.724 L769.613,736.724 C767.896,736.724 767.267,737.625 767.267,739.597 L767.267,744 L765.941,744 Z M779.082,744 L776.277,735.5 L777.671,735.5 L779.813,742.13 L782.329,735.5 L783.604,735.5 L786.188,742.164 L788.364,735.5 L789.741,735.5 L786.868,744 L785.593,744 L782.958,737.319 L780.391,744 L779.082,744 Z M795.521,744.17 C793.022,744.17 791.169,742.181 791.169,739.75 C791.169,737.319 792.988,735.33 795.521,735.33 C796.609,735.33 797.918,735.891 798.649,736.894 L798.649,735.5 L799.958,735.5 L799.958,744 L798.649,744 L798.649,742.606 C797.918,743.626 796.609,744.17 795.521,744.17 Z M795.589,742.98 C797.408,742.98 798.768,741.535 798.768,739.75 C798.768,737.982 797.408,736.52 795.589,736.52 C793.855,736.52 792.495,737.965 792.495,739.75 C792.495,741.535 793.855,742.98 795.589,742.98 Z M805.092,744.17 C803.613,744.17 802.372,743.558 801.539,742.538 L802.576,741.688 C803.205,742.47 804.055,743.014 805.143,743.014 C806.418,743.014 807.064,742.334 807.064,741.552 C807.064,740.651 805.942,740.481 804.769,740.209 C803.409,739.886 801.947,739.444 801.947,737.778 C801.947,736.52 803.137,735.313 805.041,735.313 C806.299,735.313 807.54,735.772 808.271,736.622 L807.302,737.438 C806.724,736.792 805.993,736.435 805.041,736.435 C803.868,736.435 803.239,737.047 803.239,737.761 C803.239,738.628 804.31,738.832 805.466,739.104 C806.843,739.427 808.356,739.852 808.356,741.552 C808.356,742.64 807.455,744.17 805.092,744.17 Z M814.561,744 L814.561,735.5 L815.853,735.5 L815.853,736.758 C816.448,735.891 817.468,735.33 818.743,735.33 C821.021,735.33 822.432,736.826 822.432,739.274 L822.432,744 L821.106,744 L821.106,739.274 C821.106,737.625 820.256,736.52 818.556,736.52 C817.009,736.52 815.87,737.744 815.87,739.291 L815.87,744 L814.561,744 Z M828.756,744.17 C826.308,744.17 824.353,742.249 824.353,739.75 C824.353,737.251 826.308,735.33 828.756,735.33 C831.204,735.33 833.176,737.251 833.176,739.75 C833.176,742.249 831.204,744.17 828.756,744.17 Z M828.756,742.98 C830.49,742.98 831.85,741.535 831.85,739.75 C831.85,737.965 830.49,736.52 828.756,736.52 C827.022,736.52 825.679,737.965 825.679,739.75 C825.679,741.535 827.022,742.98 828.756,742.98 Z M834.57,736.69 L834.57,735.5 L836.032,735.5 L836.032,733.494 L837.358,732.763 L837.358,735.5 L839.364,735.5 L839.364,736.69 L837.358,736.69 L837.358,740.736 C837.358,742.47 837.681,742.759 839.364,742.759 L839.364,744 L839.177,744 C836.695,744 836.032,743.286 836.032,740.753 L836.032,736.69 L834.57,736.69 Z M844.957,736.69 L844.957,735.5 L846.419,735.5 L846.419,734.837 C846.419,732.304 847.15,731.59 849.649,731.59 L849.768,731.59 L849.768,732.797 C847.966,732.797 847.745,733.12 847.745,734.854 L847.745,735.5 L849.768,735.5 L849.768,736.69 L847.745,736.69 L847.745,744 L846.419,744 L846.419,736.69 L844.957,736.69 Z M855.616,744.17 C853.168,744.17 851.213,742.249 851.213,739.75 C851.213,737.251 853.168,735.33 855.616,735.33 C858.064,735.33 860.036,737.251 860.036,739.75 C860.036,742.249 858.064,744.17 855.616,744.17 Z M855.616,742.98 C857.35,742.98 858.71,741.535 858.71,739.75 C858.71,737.965 857.35,736.52 855.616,736.52 C853.882,736.52 852.539,737.965 852.539,739.75 C852.539,741.535 853.882,742.98 855.616,742.98 Z M865.714,744.17 C863.232,744.17 861.957,742.674 861.957,740.226 L861.957,735.5 L863.283,735.5 L863.283,740.226 C863.283,741.875 864.133,742.98 865.833,742.98 C867.38,742.98 868.519,741.756 868.519,740.209 L868.519,735.5 L869.828,735.5 L869.828,744 L868.536,744 L868.536,742.742 C867.941,743.609 866.938,744.17 865.714,744.17 Z M872.106,744 L872.106,735.5 L873.398,735.5 L873.398,736.758 C873.993,735.891 875.013,735.33 876.288,735.33 C878.566,735.33 879.977,736.826 879.977,739.274 L879.977,744 L878.651,744 L878.651,739.274 C878.651,737.625 877.801,736.52 876.101,736.52 C874.554,736.52 873.415,737.744 873.415,739.291 L873.415,744 L872.106,744 Z M886.25,744.17 C883.751,744.17 881.898,742.181 881.898,739.75 C881.898,737.319 883.717,735.33 886.25,735.33 C887.338,735.33 888.63,735.874 889.361,736.877 L889.361,731.59 L890.636,731.59 L890.636,744 L889.378,744 L889.378,742.606 C888.647,743.626 887.338,744.17 886.25,744.17 Z M886.318,742.98 C888.137,742.98 889.497,741.535 889.497,739.75 C889.497,737.982 888.137,736.52 886.318,736.52 C884.584,736.52 883.224,737.965 883.224,739.75 C883.224,741.535 884.584,742.98 886.318,742.98 Z" id="The-page-you’re-look" transform="translate(720.313000, 739.869000) rotate(-360.000000) translate(-720.313000, -739.869000) "></path>
        </g>
    </g>
</svg>