<?xml version="1.0" encoding="UTF-8" standalone="no"?>
<svg width="442px" height="23px" viewBox="0 0 442 23" version="1.1" xmlns="http://www.w3.org/2000/svg" xmlns:xlink="http://www.w3.org/1999/xlink">
    <!-- Generator: Sketch 50.2 (55047) - http://www.bohemiancoding.com/sketch -->
    <title>The page you’re look</title>
    <desc>Created with Sketch.</desc>
    <defs></defs>
    <g id="Page-1" stroke="none" stroke-width="1" fill="none" fill-rule="evenodd">
        <g id="404-Page" transform="translate(-499.000000, -727.000000)" fill="#FFFFFF">
            <path d="M504.68,744 L504.68,729.524 L499.84,729.524 L499.84,727.94 L511.214,727.94 L511.214,729.524 L506.396,729.524 L506.396,744 L504.68,744 Z M513.722,744 L513.722,727.94 L515.394,727.94 L515.394,734.606 C516.164,733.506 517.484,732.78 519.134,732.78 C522.082,732.78 523.908,734.716 523.908,737.884 L523.908,744 L522.192,744 L522.192,737.884 C522.192,735.75 521.092,734.32 518.892,734.32 C516.89,734.32 515.416,735.904 515.416,737.906 L515.416,744 L513.722,744 Z M532.202,744.22 C528.704,744.22 526.416,741.822 526.416,738.588 C526.416,735.288 528.814,732.78 532.114,732.78 C535.282,732.78 537.746,734.958 537.746,738.324 L537.746,739.05 L528.066,739.05 C528.286,741.228 530.002,742.702 532.202,742.702 C533.984,742.702 535.238,741.778 535.92,740.436 L537.394,741.162 C536.382,743.076 534.666,744.22 532.202,744.22 Z M532.114,734.298 C530.134,734.298 528.594,735.64 528.154,737.488 L536.008,737.488 C535.7,735.508 534.248,734.298 532.114,734.298 Z M551.474,744.22 C549.934,744.22 548.35,743.604 547.448,742.328 L547.448,749.06 L545.798,749.06 L545.798,733 L547.426,733 L547.426,734.804 C548.35,733.506 550.044,732.78 551.474,732.78 C554.752,732.78 557.106,735.354 557.106,738.5 C557.106,741.646 554.708,744.22 551.474,744.22 Z M551.386,742.68 C553.63,742.68 555.39,740.81 555.39,738.5 C555.39,736.19 553.63,734.32 551.386,734.32 C549.032,734.32 547.272,736.212 547.272,738.5 C547.272,740.81 549.032,742.68 551.386,742.68 Z M564.85,744.22 C561.616,744.22 559.218,741.646 559.218,738.5 C559.218,735.354 561.572,732.78 564.85,732.78 C566.258,732.78 567.952,733.506 568.898,734.804 L568.898,733 L570.592,733 L570.592,744 L568.898,744 L568.898,742.196 C567.952,743.516 566.258,744.22 564.85,744.22 Z M564.938,742.68 C567.292,742.68 569.052,740.81 569.052,738.5 C569.052,736.212 567.292,734.32 564.938,734.32 C562.694,734.32 560.934,736.19 560.934,738.5 C560.934,740.81 562.694,742.68 564.938,742.68 Z M578.754,744.22 C575.52,744.22 573.122,741.646 573.122,738.5 C573.122,735.354 575.476,732.78 578.754,732.78 C580.162,732.78 581.856,733.506 582.802,734.804 L582.802,733 L584.496,733 L584.496,743.802 C584.496,747.146 582.384,749.368 579.062,749.368 C576.378,749.368 574.684,748.18 573.892,746.332 L575.564,745.782 C576.092,747.036 577.192,747.872 579.062,747.872 C581.46,747.872 582.824,746.2 582.824,743.846 L582.824,742.174 C581.9,743.494 580.184,744.22 578.754,744.22 Z M578.842,742.68 C581.196,742.68 582.956,740.81 582.956,738.5 C582.956,736.212 581.196,734.32 578.842,734.32 C576.598,734.32 574.838,736.19 574.838,738.5 C574.838,740.81 576.598,742.68 578.842,742.68 Z M592.834,744.22 C589.336,744.22 587.048,741.822 587.048,738.588 C587.048,735.288 589.446,732.78 592.746,732.78 C595.914,732.78 598.378,734.958 598.378,738.324 L598.378,739.05 L588.698,739.05 C588.918,741.228 590.634,742.702 592.834,742.702 C594.616,742.702 595.87,741.778 596.552,740.436 L598.026,741.162 C597.014,743.076 595.298,744.22 592.834,744.22 Z M592.746,734.298 C590.766,734.298 589.226,735.64 588.786,737.488 L596.64,737.488 C596.332,735.508 594.88,734.298 592.746,734.298 Z M607.882,749.082 L610.368,743.362 L605.616,733 L607.486,733 L611.27,741.404 L614.768,733 L616.616,733 L609.686,749.082 L607.882,749.082 Z M624.03,744.22 C620.862,744.22 618.332,741.734 618.332,738.5 C618.332,735.266 620.862,732.78 624.03,732.78 C627.198,732.78 629.75,735.266 629.75,738.5 C629.75,741.734 627.198,744.22 624.03,744.22 Z M624.03,742.68 C626.274,742.68 628.034,740.81 628.034,738.5 C628.034,736.19 626.274,734.32 624.03,734.32 C621.786,734.32 620.048,736.19 620.048,738.5 C620.048,740.81 621.786,742.68 624.03,742.68 Z M637.098,744.22 C633.886,744.22 632.236,742.284 632.236,739.116 L632.236,733 L633.952,733 L633.952,739.116 C633.952,741.25 635.052,742.68 637.252,742.68 C639.254,742.68 640.728,741.096 640.728,739.094 L640.728,733 L642.422,733 L642.422,744 L640.75,744 L640.75,742.372 C639.98,743.494 638.682,744.22 637.098,744.22 Z M645.964,732.428 L644.82,732.428 L645.744,727.94 L647.394,727.94 L645.964,732.428 Z M649.77,744 L649.77,733 L651.464,733 L651.464,734.584 C652.058,733.572 653.114,733 654.522,733 L655.886,733 L655.886,734.584 L654.522,734.584 C652.3,734.584 651.486,735.75 651.486,738.302 L651.486,744 L649.77,744 Z M663.696,744.22 C660.198,744.22 657.91,741.822 657.91,738.588 C657.91,735.288 660.308,732.78 663.608,732.78 C666.776,732.78 669.24,734.958 669.24,738.324 L669.24,739.05 L659.56,739.05 C659.78,741.228 661.496,742.702 663.696,742.702 C665.478,742.702 666.732,741.778 667.414,740.436 L668.888,741.162 C667.876,743.076 666.16,744.22 663.696,744.22 Z M663.608,734.298 C661.628,734.298 660.088,735.64 659.648,737.488 L667.502,737.488 C667.194,735.508 665.742,734.298 663.608,734.298 Z M677.314,744 L677.314,727.94 L679.03,727.94 L679.03,744 L677.314,744 Z M687.28,744.22 C684.112,744.22 681.582,741.734 681.582,738.5 C681.582,735.266 684.112,732.78 687.28,732.78 C690.448,732.78 693,735.266 693,738.5 C693,741.734 690.448,744.22 687.28,744.22 Z M687.28,742.68 C689.524,742.68 691.284,740.81 691.284,738.5 C691.284,736.19 689.524,734.32 687.28,734.32 C685.036,734.32 683.298,736.19 683.298,738.5 C683.298,740.81 685.036,742.68 687.28,742.68 Z M700.81,744.22 C697.642,744.22 695.112,741.734 695.112,738.5 C695.112,735.266 697.642,732.78 700.81,732.78 C703.978,732.78 706.53,735.266 706.53,738.5 C706.53,741.734 703.978,744.22 700.81,744.22 Z M700.81,742.68 C703.054,742.68 704.814,740.81 704.814,738.5 C704.814,736.19 703.054,734.32 700.81,734.32 C698.566,734.32 696.828,736.19 696.828,738.5 C696.828,740.81 698.566,742.68 700.81,742.68 Z M716.804,744 L712.976,738.676 L710.754,740.942 L710.754,744 L709.082,744 L709.082,727.94 L710.754,727.94 L710.754,738.984 L716.606,733 L718.762,733 L714.208,737.664 L718.784,744 L716.804,744 Z M720.852,744 L720.852,733 L722.568,733 L722.568,744 L720.852,744 Z M720.852,731.086 L720.852,727.94 L722.568,727.94 L722.568,731.086 L720.852,731.086 Z M725.516,744 L725.516,733 L727.188,733 L727.188,734.628 C727.958,733.506 729.278,732.78 730.928,732.78 C733.876,732.78 735.702,734.716 735.702,737.884 L735.702,744 L733.986,744 L733.986,737.884 C733.986,735.75 732.886,734.32 730.686,734.32 C728.684,734.32 727.21,735.904 727.21,737.906 L727.21,744 L725.516,744 Z M743.82,744.22 C740.586,744.22 738.188,741.646 738.188,738.5 C738.188,735.354 740.542,732.78 743.82,732.78 C745.228,732.78 746.922,733.506 747.868,734.804 L747.868,733 L749.562,733 L749.562,743.802 C749.562,747.146 747.45,749.368 744.128,749.368 C741.444,749.368 739.75,748.18 738.958,746.332 L740.63,745.782 C741.158,747.036 742.258,747.872 744.128,747.872 C746.526,747.872 747.89,746.2 747.89,743.846 L747.89,742.174 C746.966,743.494 745.25,744.22 743.82,744.22 Z M743.908,742.68 C746.262,742.68 748.022,740.81 748.022,738.5 C748.022,736.212 746.262,734.32 743.908,734.32 C741.664,734.32 739.904,736.19 739.904,738.5 C739.904,740.81 741.664,742.68 743.908,742.68 Z M757.262,734.54 L757.262,733 L759.154,733 L759.154,732.142 C759.154,728.864 760.1,727.94 763.334,727.94 L763.488,727.94 L763.488,729.502 C761.156,729.502 760.87,729.92 760.87,732.164 L760.87,733 L763.488,733 L763.488,734.54 L760.87,734.54 L760.87,744 L759.154,744 L759.154,734.54 L757.262,734.54 Z M771.056,744.22 C767.888,744.22 765.358,741.734 765.358,738.5 C765.358,735.266 767.888,732.78 771.056,732.78 C774.224,732.78 776.776,735.266 776.776,738.5 C776.776,741.734 774.224,744.22 771.056,744.22 Z M771.056,742.68 C773.3,742.68 775.06,740.81 775.06,738.5 C775.06,736.19 773.3,734.32 771.056,734.32 C768.812,734.32 767.074,736.19 767.074,738.5 C767.074,740.81 768.812,742.68 771.056,742.68 Z M779.306,744 L779.306,733 L781,733 L781,734.584 C781.594,733.572 782.65,733 784.058,733 L785.422,733 L785.422,734.584 L784.058,734.584 C781.836,734.584 781.022,735.75 781.022,738.302 L781.022,744 L779.306,744 Z M796.312,744 L792.682,733 L794.486,733 L797.258,741.58 L800.514,733 L802.164,733 L805.508,741.624 L808.324,733 L810.106,733 L806.388,744 L804.738,744 L801.328,735.354 L798.006,744 L796.312,744 Z M817.586,744.22 C814.352,744.22 811.954,741.646 811.954,738.5 C811.954,735.354 814.308,732.78 817.586,732.78 C818.994,732.78 820.688,733.506 821.634,734.804 L821.634,733 L823.328,733 L823.328,744 L821.634,744 L821.634,742.196 C820.688,743.516 818.994,744.22 817.586,744.22 Z M817.674,742.68 C820.028,742.68 821.788,740.81 821.788,738.5 C821.788,736.212 820.028,734.32 817.674,734.32 C815.43,734.32 813.67,736.19 813.67,738.5 C813.67,740.81 815.43,742.68 817.674,742.68 Z M829.972,744.22 C828.058,744.22 826.452,743.428 825.374,742.108 L826.716,741.008 C827.53,742.02 828.63,742.724 830.038,742.724 C831.688,742.724 832.524,741.844 832.524,740.832 C832.524,739.666 831.072,739.446 829.554,739.094 C827.794,738.676 825.902,738.104 825.902,735.948 C825.902,734.32 827.442,732.758 829.906,732.758 C831.534,732.758 833.14,733.352 834.086,734.452 L832.832,735.508 C832.084,734.672 831.138,734.21 829.906,734.21 C828.388,734.21 827.574,735.002 827.574,735.926 C827.574,737.048 828.96,737.312 830.456,737.664 C832.238,738.082 834.196,738.632 834.196,740.832 C834.196,742.24 833.03,744.22 829.972,744.22 Z M842.226,744 L842.226,733 L843.898,733 L843.898,734.628 C844.668,733.506 845.988,732.78 847.638,732.78 C850.586,732.78 852.412,734.716 852.412,737.884 L852.412,744 L850.696,744 L850.696,737.884 C850.696,735.75 849.596,734.32 847.396,734.32 C845.394,734.32 843.92,735.904 843.92,737.906 L843.92,744 L842.226,744 Z M860.596,744.22 C857.428,744.22 854.898,741.734 854.898,738.5 C854.898,735.266 857.428,732.78 860.596,732.78 C863.764,732.78 866.316,735.266 866.316,738.5 C866.316,741.734 863.764,744.22 860.596,744.22 Z M860.596,742.68 C862.84,742.68 864.6,740.81 864.6,738.5 C864.6,736.19 862.84,734.32 860.596,734.32 C858.352,734.32 856.614,736.19 856.614,738.5 C856.614,740.81 858.352,742.68 860.596,742.68 Z M868.12,734.54 L868.12,733 L870.012,733 L870.012,730.404 L871.728,729.458 L871.728,733 L874.324,733 L874.324,734.54 L871.728,734.54 L871.728,739.776 C871.728,742.02 872.146,742.394 874.324,742.394 L874.324,744 L874.082,744 C870.87,744 870.012,743.076 870.012,739.798 L870.012,734.54 L868.12,734.54 Z M881.562,734.54 L881.562,733 L883.454,733 L883.454,732.142 C883.454,728.864 884.4,727.94 887.634,727.94 L887.788,727.94 L887.788,729.502 C885.456,729.502 885.17,729.92 885.17,732.164 L885.17,733 L887.788,733 L887.788,734.54 L885.17,734.54 L885.17,744 L883.454,744 L883.454,734.54 L881.562,734.54 Z M895.356,744.22 C892.188,744.22 889.658,741.734 889.658,738.5 C889.658,735.266 892.188,732.78 895.356,732.78 C898.524,732.78 901.076,735.266 901.076,738.5 C901.076,741.734 898.524,744.22 895.356,744.22 Z M895.356,742.68 C897.6,742.68 899.36,740.81 899.36,738.5 C899.36,736.19 897.6,734.32 895.356,734.32 C893.112,734.32 891.374,736.19 891.374,738.5 C891.374,740.81 893.112,742.68 895.356,742.68 Z M908.424,744.22 C905.212,744.22 903.562,742.284 903.562,739.116 L903.562,733 L905.278,733 L905.278,739.116 C905.278,741.25 906.378,742.68 908.578,742.68 C910.58,742.68 912.054,741.096 912.054,739.094 L912.054,733 L913.748,733 L913.748,744 L912.076,744 L912.076,742.372 C911.306,743.494 910.008,744.22 908.424,744.22 Z M916.696,744 L916.696,733 L918.368,733 L918.368,734.628 C919.138,733.506 920.458,732.78 922.108,732.78 C925.056,732.78 926.882,734.716 926.882,737.884 L926.882,744 L925.166,744 L925.166,737.884 C925.166,735.75 924.066,734.32 921.866,734.32 C919.864,734.32 918.39,735.904 918.39,737.906 L918.39,744 L916.696,744 Z M935,744.22 C931.766,744.22 929.368,741.646 929.368,738.5 C929.368,735.354 931.722,732.78 935,732.78 C936.408,732.78 938.08,733.484 939.026,734.782 L939.026,727.94 L940.676,727.94 L940.676,744 L939.048,744 L939.048,742.196 C938.102,743.516 936.408,744.22 935,744.22 Z M935.088,742.68 C937.442,742.68 939.202,740.81 939.202,738.5 C939.202,736.212 937.442,734.32 935.088,734.32 C932.844,734.32 931.084,736.19 931.084,738.5 C931.084,740.81 932.844,742.68 935.088,742.68 Z" id="The-page-you’re-look" transform="translate(720.258000, 738.654000) rotate(-360.000000) translate(-720.258000, -738.654000) "></path>
        </g>
    </g>
</svg>