<?xml version="1.0" encoding="UTF-8" standalone="no"?>
<svg width="221px" height="39px" viewBox="0 0 221 39" version="1.1" xmlns="http://www.w3.org/2000/svg" xmlns:xlink="http://www.w3.org/1999/xlink">
    <!-- Generator: Sketch 50.2 (55047) - http://www.bohemiancoding.com/sketch -->
    <title>The page you’re look</title>
    <desc>Created with Sketch.</desc>
    <defs></defs>
    <g id="Page-1" stroke="none" stroke-width="1" fill="none" fill-rule="evenodd">
        <g id="404-Page" transform="translate(-610.000000, -731.000000)" fill="#FFFFFF">
            <path d="M613.9185,744 L613.9185,732.814 L610.1785,732.814 L610.1785,731.59 L618.9675,731.59 L618.9675,732.814 L615.2445,732.814 L615.2445,744 L613.9185,744 Z M620.9055,744 L620.9055,731.59 L622.1975,731.59 L622.1975,736.741 C622.7925,735.891 623.8125,735.33 625.0875,735.33 C627.3655,735.33 628.7765,736.826 628.7765,739.274 L628.7765,744 L627.4505,744 L627.4505,739.274 C627.4505,737.625 626.6005,736.52 624.9005,736.52 C623.3535,736.52 622.2145,737.744 622.2145,739.291 L622.2145,744 L620.9055,744 Z M635.1855,744.17 C632.4825,744.17 630.7145,742.317 630.7145,739.818 C630.7145,737.268 632.5675,735.33 635.1175,735.33 C637.5655,735.33 639.4695,737.013 639.4695,739.614 L639.4695,740.175 L631.9895,740.175 C632.1595,741.858 633.4855,742.997 635.1855,742.997 C636.5625,742.997 637.5315,742.283 638.0585,741.246 L639.1975,741.807 C638.4155,743.286 637.0895,744.17 635.1855,744.17 Z M635.1175,736.503 C633.5875,736.503 632.3975,737.54 632.0575,738.968 L638.1265,738.968 C637.8885,737.438 636.7665,736.503 635.1175,736.503 Z M650.0775,744.17 C648.8875,744.17 647.6635,743.694 646.9665,742.708 L646.9665,747.91 L645.6915,747.91 L645.6915,735.5 L646.9495,735.5 L646.9495,736.894 C647.6635,735.891 648.9725,735.33 650.0775,735.33 C652.6105,735.33 654.4295,737.319 654.4295,739.75 C654.4295,742.181 652.5765,744.17 650.0775,744.17 Z M650.0095,742.98 C651.7435,742.98 653.1035,741.535 653.1035,739.75 C653.1035,737.965 651.7435,736.52 650.0095,736.52 C648.1905,736.52 646.8305,737.982 646.8305,739.75 C646.8305,741.535 648.1905,742.98 650.0095,742.98 Z M660.4135,744.17 C657.9145,744.17 656.0615,742.181 656.0615,739.75 C656.0615,737.319 657.8805,735.33 660.4135,735.33 C661.5015,735.33 662.8105,735.891 663.5415,736.894 L663.5415,735.5 L664.8505,735.5 L664.8505,744 L663.5415,744 L663.5415,742.606 C662.8105,743.626 661.5015,744.17 660.4135,744.17 Z M660.4815,742.98 C662.3005,742.98 663.6605,741.535 663.6605,739.75 C663.6605,737.982 662.3005,736.52 660.4815,736.52 C658.7475,736.52 657.3875,737.965 657.3875,739.75 C657.3875,741.535 658.7475,742.98 660.4815,742.98 Z M671.1575,744.17 C668.6585,744.17 666.8055,742.181 666.8055,739.75 C666.8055,737.319 668.6245,735.33 671.1575,735.33 C672.2455,735.33 673.5545,735.891 674.2855,736.894 L674.2855,735.5 L675.5945,735.5 L675.5945,743.847 C675.5945,746.431 673.9625,748.148 671.3955,748.148 C669.3215,748.148 668.0125,747.23 667.4005,745.802 L668.6925,745.377 C669.1005,746.346 669.9505,746.992 671.3955,746.992 C673.2485,746.992 674.3025,745.7 674.3025,743.881 L674.3025,742.589 C673.5885,743.609 672.2625,744.17 671.1575,744.17 Z M671.2255,742.98 C673.0445,742.98 674.4045,741.535 674.4045,739.75 C674.4045,737.982 673.0445,736.52 671.2255,736.52 C669.4915,736.52 668.1315,737.965 668.1315,739.75 C668.1315,741.535 669.4915,742.98 671.2255,742.98 Z M682.0375,744.17 C679.3345,744.17 677.5665,742.317 677.5665,739.818 C677.5665,737.268 679.4195,735.33 681.9695,735.33 C684.4175,735.33 686.3215,737.013 686.3215,739.614 L686.3215,740.175 L678.8415,740.175 C679.0115,741.858 680.3375,742.997 682.0375,742.997 C683.4145,742.997 684.3835,742.283 684.9105,741.246 L686.0495,741.807 C685.2675,743.286 683.9415,744.17 682.0375,744.17 Z M681.9695,736.503 C680.4395,736.503 679.2495,737.54 678.9095,738.968 L684.9785,738.968 C684.7405,737.438 683.6185,736.503 681.9695,736.503 Z M693.6655,747.927 L695.5865,743.507 L691.9145,735.5 L693.3595,735.5 L696.2835,741.994 L698.9865,735.5 L700.4145,735.5 L695.0595,747.927 L693.6655,747.927 Z M706.1435,744.17 C703.6955,744.17 701.7405,742.249 701.7405,739.75 C701.7405,737.251 703.6955,735.33 706.1435,735.33 C708.5915,735.33 710.5635,737.251 710.5635,739.75 C710.5635,742.249 708.5915,744.17 706.1435,744.17 Z M706.1435,742.98 C707.8775,742.98 709.2375,741.535 709.2375,739.75 C709.2375,737.965 707.8775,736.52 706.1435,736.52 C704.4095,736.52 703.0665,737.965 703.0665,739.75 C703.0665,741.535 704.4095,742.98 706.1435,742.98 Z M716.2415,744.17 C713.7595,744.17 712.4845,742.674 712.4845,740.226 L712.4845,735.5 L713.8105,735.5 L713.8105,740.226 C713.8105,741.875 714.6605,742.98 716.3605,742.98 C717.9075,742.98 719.0465,741.756 719.0465,740.209 L719.0465,735.5 L720.3555,735.5 L720.3555,744 L719.0635,744 L719.0635,742.742 C718.4685,743.609 717.4655,744.17 716.2415,744.17 Z M723.0925,735.058 L722.2085,735.058 L722.9225,731.59 L724.1975,731.59 L723.0925,735.058 Z M726.0335,744 L726.0335,735.5 L727.3425,735.5 L727.3425,736.724 C727.8015,735.942 728.6175,735.5 729.7055,735.5 L730.7595,735.5 L730.7595,736.724 L729.7055,736.724 C727.9885,736.724 727.3595,737.625 727.3595,739.597 L727.3595,744 L726.0335,744 Z M736.7945,744.17 C734.0915,744.17 732.3235,742.317 732.3235,739.818 C732.3235,737.268 734.1765,735.33 736.7265,735.33 C739.1745,735.33 741.0785,737.013 741.0785,739.614 L741.0785,740.175 L733.5985,740.175 C733.7685,741.858 735.0945,742.997 736.7945,742.997 C738.1715,742.997 739.1405,742.283 739.6675,741.246 L740.8065,741.807 C740.0245,743.286 738.6985,744.17 736.7945,744.17 Z M736.7265,736.503 C735.1965,736.503 734.0065,737.54 733.6665,738.968 L739.7355,738.968 C739.4975,737.438 738.3755,736.503 736.7265,736.503 Z M747.3175,744 L747.3175,731.59 L748.6435,731.59 L748.6435,744 L747.3175,744 Z M755.0185,744.17 C752.5705,744.17 750.6155,742.249 750.6155,739.75 C750.6155,737.251 752.5705,735.33 755.0185,735.33 C757.4665,735.33 759.4385,737.251 759.4385,739.75 C759.4385,742.249 757.4665,744.17 755.0185,744.17 Z M755.0185,742.98 C756.7525,742.98 758.1125,741.535 758.1125,739.75 C758.1125,737.965 756.7525,736.52 755.0185,736.52 C753.2845,736.52 751.9415,737.965 751.9415,739.75 C751.9415,741.535 753.2845,742.98 755.0185,742.98 Z M765.4735,744.17 C763.0255,744.17 761.0705,742.249 761.0705,739.75 C761.0705,737.251 763.0255,735.33 765.4735,735.33 C767.9215,735.33 769.8935,737.251 769.8935,739.75 C769.8935,742.249 767.9215,744.17 765.4735,744.17 Z M765.4735,742.98 C767.2075,742.98 768.5675,741.535 768.5675,739.75 C768.5675,737.965 767.2075,736.52 765.4735,736.52 C763.7395,736.52 762.3965,737.965 762.3965,739.75 C762.3965,741.535 763.7395,742.98 765.4735,742.98 Z M777.8325,744 L774.8745,739.886 L773.1575,741.637 L773.1575,744 L771.8655,744 L771.8655,731.59 L773.1575,731.59 L773.1575,740.124 L777.6795,735.5 L779.3455,735.5 L775.8265,739.104 L779.3625,744 L777.8325,744 Z M780.9605,744 L780.9605,735.5 L782.2865,735.5 L782.2865,744 L780.9605,744 Z M780.9605,734.021 L780.9605,731.59 L782.2865,731.59 L782.2865,734.021 L780.9605,734.021 Z M784.5645,744 L784.5645,735.5 L785.8565,735.5 L785.8565,736.758 C786.4515,735.891 787.4715,735.33 788.7465,735.33 C791.0245,735.33 792.4355,736.826 792.4355,739.274 L792.4355,744 L791.1095,744 L791.1095,739.274 C791.1095,737.625 790.2595,736.52 788.5595,736.52 C787.0125,736.52 785.8735,737.744 785.8735,739.291 L785.8735,744 L784.5645,744 Z M798.7085,744.17 C796.2095,744.17 794.3565,742.181 794.3565,739.75 C794.3565,737.319 796.1755,735.33 798.7085,735.33 C799.7965,735.33 801.1055,735.891 801.8365,736.894 L801.8365,735.5 L803.1455,735.5 L803.1455,743.847 C803.1455,746.431 801.5135,748.148 798.9465,748.148 C796.8725,748.148 795.5635,747.23 794.9515,745.802 L796.2435,745.377 C796.6515,746.346 797.5015,746.992 798.9465,746.992 C800.7995,746.992 801.8535,745.7 801.8535,743.881 L801.8535,742.589 C801.1395,743.609 799.8135,744.17 798.7085,744.17 Z M798.7765,742.98 C800.5955,742.98 801.9555,741.535 801.9555,739.75 C801.9555,737.982 800.5955,736.52 798.7765,736.52 C797.0425,736.52 795.6825,737.965 795.6825,739.75 C795.6825,741.535 797.0425,742.98 798.7765,742.98 Z M809.0955,736.69 L809.0955,735.5 L810.5575,735.5 L810.5575,734.837 C810.5575,732.304 811.2885,731.59 813.7875,731.59 L813.9065,731.59 L813.9065,732.797 C812.1045,732.797 811.8835,733.12 811.8835,734.854 L811.8835,735.5 L813.9065,735.5 L813.9065,736.69 L811.8835,736.69 L811.8835,744 L810.5575,744 L810.5575,736.69 L809.0955,736.69 Z M819.7545,744.17 C817.3065,744.17 815.3515,742.249 815.3515,739.75 C815.3515,737.251 817.3065,735.33 819.7545,735.33 C822.2025,735.33 824.1745,737.251 824.1745,739.75 C824.1745,742.249 822.2025,744.17 819.7545,744.17 Z M819.7545,742.98 C821.4885,742.98 822.8485,741.535 822.8485,739.75 C822.8485,737.965 821.4885,736.52 819.7545,736.52 C818.0205,736.52 816.6775,737.965 816.6775,739.75 C816.6775,741.535 818.0205,742.98 819.7545,742.98 Z M826.1295,744 L826.1295,735.5 L827.4385,735.5 L827.4385,736.724 C827.8975,735.942 828.7135,735.5 829.8015,735.5 L830.8555,735.5 L830.8555,736.724 L829.8015,736.724 C828.0845,736.724 827.4555,737.625 827.4555,739.597 L827.4555,744 L826.1295,744 Z M665.8535,769.3 L663.0485,760.8 L664.4425,760.8 L666.5845,767.43 L669.1005,760.8 L670.3755,760.8 L672.9595,767.464 L675.1355,760.8 L676.5125,760.8 L673.6395,769.3 L672.3645,769.3 L669.7295,762.619 L667.1625,769.3 L665.8535,769.3 Z M682.2925,769.47 C679.7935,769.47 677.9405,767.481 677.9405,765.05 C677.9405,762.619 679.7595,760.63 682.2925,760.63 C683.3805,760.63 684.6895,761.191 685.4205,762.194 L685.4205,760.8 L686.7295,760.8 L686.7295,769.3 L685.4205,769.3 L685.4205,767.906 C684.6895,768.926 683.3805,769.47 682.2925,769.47 Z M682.3605,768.28 C684.1795,768.28 685.5395,766.835 685.5395,765.05 C685.5395,763.282 684.1795,761.82 682.3605,761.82 C680.6265,761.82 679.2665,763.265 679.2665,765.05 C679.2665,766.835 680.6265,768.28 682.3605,768.28 Z M691.8635,769.47 C690.3845,769.47 689.1435,768.858 688.3105,767.838 L689.3475,766.988 C689.9765,767.77 690.8265,768.314 691.9145,768.314 C693.1895,768.314 693.8355,767.634 693.8355,766.852 C693.8355,765.951 692.7135,765.781 691.5405,765.509 C690.1805,765.186 688.7185,764.744 688.7185,763.078 C688.7185,761.82 689.9085,760.613 691.8125,760.613 C693.0705,760.613 694.3115,761.072 695.0425,761.922 L694.0735,762.738 C693.4955,762.092 692.7645,761.735 691.8125,761.735 C690.6395,761.735 690.0105,762.347 690.0105,763.061 C690.0105,763.928 691.0815,764.132 692.2375,764.404 C693.6145,764.727 695.1275,765.152 695.1275,766.852 C695.1275,767.94 694.2265,769.47 691.8635,769.47 Z M701.3325,769.3 L701.3325,760.8 L702.6245,760.8 L702.6245,762.058 C703.2195,761.191 704.2395,760.63 705.5145,760.63 C707.7925,760.63 709.2035,762.126 709.2035,764.574 L709.2035,769.3 L707.8775,769.3 L707.8775,764.574 C707.8775,762.925 707.0275,761.82 705.3275,761.82 C703.7805,761.82 702.6415,763.044 702.6415,764.591 L702.6415,769.3 L701.3325,769.3 Z M715.5275,769.47 C713.0795,769.47 711.1245,767.549 711.1245,765.05 C711.1245,762.551 713.0795,760.63 715.5275,760.63 C717.9755,760.63 719.9475,762.551 719.9475,765.05 C719.9475,767.549 717.9755,769.47 715.5275,769.47 Z M715.5275,768.28 C717.2615,768.28 718.6215,766.835 718.6215,765.05 C718.6215,763.265 717.2615,761.82 715.5275,761.82 C713.7935,761.82 712.4505,763.265 712.4505,765.05 C712.4505,766.835 713.7935,768.28 715.5275,768.28 Z M721.3415,761.99 L721.3415,760.8 L722.8035,760.8 L722.8035,758.794 L724.1295,758.063 L724.1295,760.8 L726.1355,760.8 L726.1355,761.99 L724.1295,761.99 L724.1295,766.036 C724.1295,767.77 724.4525,768.059 726.1355,768.059 L726.1355,769.3 L725.9485,769.3 C723.4665,769.3 722.8035,768.586 722.8035,766.053 L722.8035,761.99 L721.3415,761.99 Z M731.7285,761.99 L731.7285,760.8 L733.1905,760.8 L733.1905,760.137 C733.1905,757.604 733.9215,756.89 736.4205,756.89 L736.5395,756.89 L736.5395,758.097 C734.7375,758.097 734.5165,758.42 734.5165,760.154 L734.5165,760.8 L736.5395,760.8 L736.5395,761.99 L734.5165,761.99 L734.5165,769.3 L733.1905,769.3 L733.1905,761.99 L731.7285,761.99 Z M742.3875,769.47 C739.9395,769.47 737.9845,767.549 737.9845,765.05 C737.9845,762.551 739.9395,760.63 742.3875,760.63 C744.8355,760.63 746.8075,762.551 746.8075,765.05 C746.8075,767.549 744.8355,769.47 742.3875,769.47 Z M742.3875,768.28 C744.1215,768.28 745.4815,766.835 745.4815,765.05 C745.4815,763.265 744.1215,761.82 742.3875,761.82 C740.6535,761.82 739.3105,763.265 739.3105,765.05 C739.3105,766.835 740.6535,768.28 742.3875,768.28 Z M752.4855,769.47 C750.0035,769.47 748.7285,767.974 748.7285,765.526 L748.7285,760.8 L750.0545,760.8 L750.0545,765.526 C750.0545,767.175 750.9045,768.28 752.6045,768.28 C754.1515,768.28 755.2905,767.056 755.2905,765.509 L755.2905,760.8 L756.5995,760.8 L756.5995,769.3 L755.3075,769.3 L755.3075,768.042 C754.7125,768.909 753.7095,769.47 752.4855,769.47 Z M758.8775,769.3 L758.8775,760.8 L760.1695,760.8 L760.1695,762.058 C760.7645,761.191 761.7845,760.63 763.0595,760.63 C765.3375,760.63 766.7485,762.126 766.7485,764.574 L766.7485,769.3 L765.4225,769.3 L765.4225,764.574 C765.4225,762.925 764.5725,761.82 762.8725,761.82 C761.3255,761.82 760.1865,763.044 760.1865,764.591 L760.1865,769.3 L758.8775,769.3 Z M773.0215,769.47 C770.5225,769.47 768.6695,767.481 768.6695,765.05 C768.6695,762.619 770.4885,760.63 773.0215,760.63 C774.1095,760.63 775.4015,761.174 776.1325,762.177 L776.1325,756.89 L777.4075,756.89 L777.4075,769.3 L776.1495,769.3 L776.1495,767.906 C775.4185,768.926 774.1095,769.47 773.0215,769.47 Z M773.0895,768.28 C774.9085,768.28 776.2685,766.835 776.2685,765.05 C776.2685,763.282 774.9085,761.82 773.0895,761.82 C771.3555,761.82 769.9955,763.265 769.9955,765.05 C769.9955,766.835 771.3555,768.28 773.0895,768.28 Z" id="The-page-you’re-look" transform="translate(720.517000, 750.530000) rotate(-360.000000) translate(-720.517000, -750.530000) "></path>
        </g>
    </g>
</svg>