<?xml version="1.0" encoding="utf-8"?>
<!-- Generator: Adobe Illustrator 22.1.0, SVG Export Plug-In . SVG Version: 6.00 Build 0)  -->
<svg version="1.1" id="Layer_1" xmlns="http://www.w3.org/2000/svg" xmlns:xlink="http://www.w3.org/1999/xlink" x="0px" y="0px" width="1160px" height="582px"
	 viewBox="0 0 1160 582" style="enable-background:new 0 0 1160 582;" xml:space="preserve">
<style type="text/css">
	.st0{fill:url(#_x34_04_1_);}
</style>
<title>Artboard</title>
<desc>Created with Sketch.</desc>
<g id="Artboard">
	<g id="Group">
		<g id="rainbow">
			
				<linearGradient id="_x34_04_1_" gradientUnits="userSpaceOnUse" x1="-101.912" y1="675.3056" x2="-100.912" y2="675.3056" gradientTransform="matrix(1158.6284 0 0 -473.3321 118078.1016 319880.5)">
				<stop  offset="0" style="stop-color:#57FEF3"/>
				<stop  offset="1" style="stop-color:#4790FF"/>
			</linearGradient>
			<path id="_x34_04" class="st0" d="M230.3,287.7h24.8c49.7-0.7,80.4-24.2,88.3-75.2l3.9-24.8c0.7-3.9,7.2-3.9,6.5,0.7l-3.9,25.5
				c-7.8,51-16.3,102-18.3,105.9c-1.3,2-16.3,3.3-37.3,3.3h-64.1v58.2c0,76.5,0,77.8,64.1,79.1c3.9,0,3.9,5.9,0,5.9
				c-19,0-75.8-1.3-85.6-1.3s-79.1,1.3-98.1,1.3c-3.9,0-3.9-5.9,0-5.9c71.9-2,75.2-2.6,75.2-79.1V323H45.9c-10.5,0-22.9,0.7-37.3,2
				c-13.1,1.3-13.1-3.9,12.4-35.3c83-102,112.4-148.4,190.2-272c5.2-8.5,9.2-13.1,17.7-15c24.2-6.5,34.6-0.7,26.8,15.7
				c-8.5,17.7-25.5,32-25.5,59.5V287.7z M31.5,287.7h154.3v-187C133.5,164.8,98.2,205.9,31.5,287.7z M578.7,473.3
				c-122.3,0-188.9-71.9-188.9-229.5c0-100.7,37.9-159.5,83.7-193.5C498.3,32,553.9,7.2,593.1,7.2c133.4,0,188.3,81.1,188.3,228.8
				c0,96.1-49.7,170.6-90.9,199.4C665.7,453.1,622.5,473.3,578.7,473.3z M602.9,447.8c31.4,0,68-7.2,85-15.7
				c37.3-38.6,46.4-103.9,46.4-192.2c0-134-49.7-208.6-160.2-208.6c-36,0-71.9,7.8-97.4,21.6c-25.5,28.1-39.2,81.7-39.2,185
				C437.5,366.1,489.8,447.8,602.9,447.8z M1035,287.7h24.8c49.7-0.7,80.4-24.2,88.3-75.2l3.9-24.8c0.7-3.9,7.2-3.9,6.5,0.7
				l-3.9,25.5c-7.8,51-16.3,102-18.3,105.9c-1.3,2-16.3,3.3-37.3,3.3H1035v58.2c0,76.5,0,77.8,64.1,79.1c3.9,0,3.9,5.9,0,5.9
				c-19,0-75.8-1.3-85.6-1.3s-79.1,1.3-98.1,1.3c-3.9,0-3.9-5.9,0-5.9c71.9-2,75.2-2.6,75.2-79.1V323H850.7c-10.5,0-22.9,0.7-37.3,2
				c-13.1,1.3-13.1-3.9,12.4-35.3c83-102,112.4-148.4,190.2-272c5.2-8.5,9.2-13.1,17.7-15c24.2-6.5,34.6-0.7,26.8,15.7
				c-8.5,17.7-25.5,32-25.5,59.5V287.7z M836.3,287.7h154.3v-187C938.3,164.8,903,205.9,836.3,287.7z"/>
		</g>
	</g>
</g>
</svg>
