<?xml version="1.0" encoding="UTF-8" standalone="no"?>
<svg width="327px" height="39px" viewBox="0 0 327 39" version="1.1" xmlns="http://www.w3.org/2000/svg" xmlns:xlink="http://www.w3.org/1999/xlink">
    <!-- Generator: Sketch 50.2 (55047) - http://www.bohemiancoding.com/sketch -->
    <title>A creative design &amp;</title>
    <desc>Created with Sketch.</desc>
    <defs></defs>
    <g id="1-Landing-Page" stroke="none" stroke-width="1" fill="none" fill-rule="evenodd">
        <g id="Landing-Page-BKLYN-Copy-4" transform="translate(-192.000000, -52.000000)" fill="#000000">
            <path d="M192.544,64 L196.96,52.32 L198.304,52.32 L202.736,64 L201.44,64 L200.304,61.04 L194.976,61.04 L193.856,64 L192.544,64 Z M197.632,54 L195.424,59.856 L199.856,59.856 L197.632,54 Z M212.256,64.16 C209.808,64.16 208.048,62.304 208.048,60 C208.048,57.6 209.888,55.84 212.24,55.84 C213.984,55.84 215.392,56.816 215.984,58.224 L214.864,58.704 C214.368,57.6 213.472,56.96 212.224,56.96 C210.544,56.96 209.296,58.32 209.296,60 C209.296,61.68 210.56,63.04 212.288,63.04 C213.616,63.04 214.48,62.24 214.928,61.184 L216.064,61.664 C215.424,63.12 214.16,64.16 212.256,64.16 Z M217.744,64 L217.744,56 L218.976,56 L218.976,57.152 C219.408,56.416 220.176,56 221.2,56 L222.192,56 L222.192,57.152 L221.2,57.152 C219.584,57.152 218.992,58 218.992,59.856 L218.992,64 L217.744,64 Z M227.872,64.16 C225.328,64.16 223.664,62.416 223.664,60.064 C223.664,57.664 225.408,55.84 227.808,55.84 C230.112,55.84 231.904,57.424 231.904,59.872 L231.904,60.4 L224.864,60.4 C225.024,61.984 226.272,63.056 227.872,63.056 C229.168,63.056 230.08,62.384 230.576,61.408 L231.648,61.936 C230.912,63.328 229.664,64.16 227.872,64.16 Z M227.808,56.944 C226.368,56.944 225.248,57.92 224.928,59.264 L230.64,59.264 C230.416,57.824 229.36,56.944 227.808,56.944 Z M237.552,64.16 C235.2,64.16 233.456,62.288 233.456,60 C233.456,57.712 235.168,55.84 237.552,55.84 C238.576,55.84 239.808,56.368 240.496,57.312 L240.496,56 L241.728,56 L241.728,64 L240.496,64 L240.496,62.688 C239.808,63.648 238.576,64.16 237.552,64.16 Z M237.616,63.04 C239.328,63.04 240.608,61.68 240.608,60 C240.608,58.336 239.328,56.96 237.616,56.96 C235.984,56.96 234.704,58.32 234.704,60 C234.704,61.68 235.984,63.04 237.616,63.04 Z M243.344,57.12 L243.344,56 L244.72,56 L244.72,54.112 L245.968,53.424 L245.968,56 L247.856,56 L247.856,57.12 L245.968,57.12 L245.968,60.928 C245.968,62.56 246.272,62.832 247.856,62.832 L247.856,64 L247.68,64 C245.344,64 244.72,63.328 244.72,60.944 L244.72,57.12 L243.344,57.12 Z M249.68,64 L249.68,56 L250.928,56 L250.928,64 L249.68,64 Z M249.68,54.608 L249.68,52.32 L250.928,52.32 L250.928,54.608 L249.68,54.608 Z M255.584,64 L252.48,56 L253.824,56 L256.224,62.32 L258.592,56 L259.92,56 L256.816,64 L255.584,64 Z M265.376,64.16 C262.832,64.16 261.168,62.416 261.168,60.064 C261.168,57.664 262.912,55.84 265.312,55.84 C267.616,55.84 269.408,57.424 269.408,59.872 L269.408,60.4 L262.368,60.4 C262.528,61.984 263.776,63.056 265.376,63.056 C266.672,63.056 267.584,62.384 268.08,61.408 L269.152,61.936 C268.416,63.328 267.168,64.16 265.376,64.16 Z M265.312,56.944 C263.872,56.944 262.752,57.92 262.432,59.264 L268.144,59.264 C267.92,57.824 266.864,56.944 265.312,56.944 Z M279.056,64.16 C276.704,64.16 274.96,62.288 274.96,60 C274.96,57.712 276.672,55.84 279.056,55.84 C280.08,55.84 281.296,56.352 281.984,57.296 L281.984,52.32 L283.184,52.32 L283.184,64 L282,64 L282,62.688 C281.312,63.648 280.08,64.16 279.056,64.16 Z M279.12,63.04 C280.832,63.04 282.112,61.68 282.112,60 C282.112,58.336 280.832,56.96 279.12,56.96 C277.488,56.96 276.208,58.32 276.208,60 C276.208,61.68 277.488,63.04 279.12,63.04 Z M289.248,64.16 C286.704,64.16 285.04,62.416 285.04,60.064 C285.04,57.664 286.784,55.84 289.184,55.84 C291.488,55.84 293.28,57.424 293.28,59.872 L293.28,60.4 L286.24,60.4 C286.4,61.984 287.648,63.056 289.248,63.056 C290.544,63.056 291.456,62.384 291.952,61.408 L293.024,61.936 C292.288,63.328 291.04,64.16 289.248,64.16 Z M289.184,56.944 C287.744,56.944 286.624,57.92 286.304,59.264 L292.016,59.264 C291.792,57.824 290.736,56.944 289.184,56.944 Z M297.824,64.16 C296.432,64.16 295.264,63.584 294.48,62.624 L295.456,61.824 C296.048,62.56 296.848,63.072 297.872,63.072 C299.072,63.072 299.68,62.432 299.68,61.696 C299.68,60.848 298.624,60.688 297.52,60.432 C296.24,60.128 294.864,59.712 294.864,58.144 C294.864,56.96 295.984,55.824 297.776,55.824 C298.96,55.824 300.128,56.256 300.816,57.056 L299.904,57.824 C299.36,57.216 298.672,56.88 297.776,56.88 C296.672,56.88 296.08,57.456 296.08,58.128 C296.08,58.944 297.088,59.136 298.176,59.392 C299.472,59.696 300.896,60.096 300.896,61.696 C300.896,62.72 300.048,64.16 297.824,64.16 Z M302.736,64 L302.736,56 L303.984,56 L303.984,64 L302.736,64 Z M302.736,54.608 L302.736,52.32 L303.984,52.32 L303.984,54.608 L302.736,54.608 Z M309.92,64.16 C307.568,64.16 305.824,62.288 305.824,60 C305.824,57.712 307.536,55.84 309.92,55.84 C310.944,55.84 312.176,56.368 312.864,57.312 L312.864,56 L314.096,56 L314.096,63.856 C314.096,66.288 312.56,67.904 310.144,67.904 C308.192,67.904 306.96,67.04 306.384,65.696 L307.6,65.296 C307.984,66.208 308.784,66.816 310.144,66.816 C311.888,66.816 312.88,65.6 312.88,63.888 L312.88,62.672 C312.208,63.632 310.96,64.16 309.92,64.16 Z M309.984,63.04 C311.696,63.04 312.976,61.68 312.976,60 C312.976,58.336 311.696,56.96 309.984,56.96 C308.352,56.96 307.072,58.32 307.072,60 C307.072,61.68 308.352,63.04 309.984,63.04 Z M316.256,64 L316.256,56 L317.472,56 L317.472,57.184 C318.032,56.368 318.992,55.84 320.192,55.84 C322.336,55.84 323.664,57.248 323.664,59.552 L323.664,64 L322.416,64 L322.416,59.552 C322.416,58 321.616,56.96 320.016,56.96 C318.56,56.96 317.488,58.112 317.488,59.568 L317.488,64 L316.256,64 Z M338.56,64 L337.424,62.88 C336.464,63.664 335.296,64.176 333.968,64.176 C330.704,64.176 329.424,62.128 329.424,60.384 C329.424,58.816 330.304,57.584 331.584,56.88 C331.136,56.272 330.896,55.648 330.896,54.88 C330.896,53.408 332.032,52.16 333.904,52.16 C335.328,52.16 336.256,52.88 336.768,53.68 L335.744,54.352 C335.392,53.792 334.832,53.248 333.904,53.248 C332.848,53.248 332.176,54 332.176,54.88 C332.176,55.856 332.72,56.432 334.112,57.84 L337.52,61.264 C338.256,60.368 338.72,59.264 338.864,58.224 L336.976,58.224 L336.976,57.056 L340.08,57.056 L340.08,57.584 C340.08,59.024 339.424,60.72 338.288,62.032 L340.256,64 L338.56,64 Z M333.968,63.072 C334.992,63.072 335.904,62.704 336.656,62.112 L333.104,58.56 C332.816,58.272 332.544,58 332.304,57.744 C331.264,58.336 330.672,59.184 330.672,60.368 C330.672,61.632 331.696,63.072 333.968,63.072 Z M345.392,57.12 L345.392,56 L346.768,56 L346.768,54.112 L348.016,53.424 L348.016,56 L349.904,56 L349.904,57.12 L348.016,57.12 L348.016,60.928 C348.016,62.56 348.32,62.832 349.904,62.832 L349.904,64 L349.728,64 C347.392,64 346.768,63.328 346.768,60.944 L346.768,57.12 L345.392,57.12 Z M355.632,64.16 C353.088,64.16 351.424,62.416 351.424,60.064 C351.424,57.664 353.168,55.84 355.568,55.84 C357.872,55.84 359.664,57.424 359.664,59.872 L359.664,60.4 L352.624,60.4 C352.784,61.984 354.032,63.056 355.632,63.056 C356.928,63.056 357.84,62.384 358.336,61.408 L359.408,61.936 C358.672,63.328 357.424,64.16 355.632,64.16 Z M355.568,56.944 C354.128,56.944 353.008,57.92 352.688,59.264 L358.4,59.264 C358.176,57.824 357.12,56.944 355.568,56.944 Z M365.424,64.16 C362.976,64.16 361.216,62.304 361.216,60 C361.216,57.6 363.056,55.84 365.408,55.84 C367.152,55.84 368.56,56.816 369.152,58.224 L368.032,58.704 C367.536,57.6 366.64,56.96 365.392,56.96 C363.712,56.96 362.464,58.32 362.464,60 C362.464,61.68 363.728,63.04 365.456,63.04 C366.784,63.04 367.648,62.24 368.096,61.184 L369.232,61.664 C368.592,63.12 367.328,64.16 365.424,64.16 Z M370.928,64 L370.928,52.32 L372.144,52.32 L372.144,57.168 C372.704,56.368 373.664,55.84 374.864,55.84 C377.008,55.84 378.336,57.248 378.336,59.552 L378.336,64 L377.088,64 L377.088,59.552 C377.088,58 376.288,56.96 374.688,56.96 C373.232,56.96 372.16,58.112 372.16,59.568 L372.16,64 L370.928,64 Z M380.464,64 L380.464,56 L381.68,56 L381.68,57.184 C382.24,56.368 383.2,55.84 384.4,55.84 C386.544,55.84 387.872,57.248 387.872,59.552 L387.872,64 L386.624,64 L386.624,59.552 C386.624,58 385.824,56.96 384.224,56.96 C382.768,56.96 381.696,58.112 381.696,59.568 L381.696,64 L380.464,64 Z M393.824,64.16 C391.52,64.16 389.68,62.352 389.68,60 C389.68,57.648 391.52,55.84 393.824,55.84 C396.128,55.84 397.984,57.648 397.984,60 C397.984,62.352 396.128,64.16 393.824,64.16 Z M393.824,63.04 C395.456,63.04 396.736,61.68 396.736,60 C396.736,58.32 395.456,56.96 393.824,56.96 C392.192,56.96 390.928,58.32 390.928,60 C390.928,61.68 392.192,63.04 393.824,63.04 Z M399.84,64 L399.84,52.32 L401.088,52.32 L401.088,64 L399.84,64 Z M407.088,64.16 C404.784,64.16 402.944,62.352 402.944,60 C402.944,57.648 404.784,55.84 407.088,55.84 C409.392,55.84 411.248,57.648 411.248,60 C411.248,62.352 409.392,64.16 407.088,64.16 Z M407.088,63.04 C408.72,63.04 410,61.68 410,60 C410,58.32 408.72,56.96 407.088,56.96 C405.456,56.96 404.192,58.32 404.192,60 C404.192,61.68 405.456,63.04 407.088,63.04 Z M416.88,64.16 C414.528,64.16 412.784,62.288 412.784,60 C412.784,57.712 414.496,55.84 416.88,55.84 C417.904,55.84 419.136,56.368 419.824,57.312 L419.824,56 L421.056,56 L421.056,63.856 C421.056,66.288 419.52,67.904 417.104,67.904 C415.152,67.904 413.92,67.04 413.344,65.696 L414.56,65.296 C414.944,66.208 415.744,66.816 417.104,66.816 C418.848,66.816 419.84,65.6 419.84,63.888 L419.84,62.672 C419.168,63.632 417.92,64.16 416.88,64.16 Z M416.944,63.04 C418.656,63.04 419.936,61.68 419.936,60 C419.936,58.336 418.656,56.96 416.944,56.96 C415.312,56.96 414.032,58.32 414.032,60 C414.032,61.68 415.312,63.04 416.944,63.04 Z M424.272,67.696 L426.08,63.536 L422.624,56 L423.984,56 L426.736,62.112 L429.28,56 L430.624,56 L425.584,67.696 L424.272,67.696 Z M435.648,57.12 L435.648,56 L437.024,56 L437.024,54.112 L438.272,53.424 L438.272,56 L440.16,56 L440.16,57.12 L438.272,57.12 L438.272,60.928 C438.272,62.56 438.576,62.832 440.16,62.832 L440.16,64 L439.984,64 C437.648,64 437.024,63.328 437.024,60.944 L437.024,57.12 L435.648,57.12 Z M445.888,64.16 C443.344,64.16 441.68,62.416 441.68,60.064 C441.68,57.664 443.424,55.84 445.824,55.84 C448.128,55.84 449.92,57.424 449.92,59.872 L449.92,60.4 L442.88,60.4 C443.04,61.984 444.288,63.056 445.888,63.056 C447.184,63.056 448.096,62.384 448.592,61.408 L449.664,61.936 C448.928,63.328 447.68,64.16 445.888,64.16 Z M445.824,56.944 C444.384,56.944 443.264,57.92 442.944,59.264 L448.656,59.264 C448.432,57.824 447.376,56.944 445.824,56.944 Z M455.568,64.16 C453.216,64.16 451.472,62.288 451.472,60 C451.472,57.712 453.184,55.84 455.568,55.84 C456.592,55.84 457.824,56.368 458.512,57.312 L458.512,56 L459.744,56 L459.744,64 L458.512,64 L458.512,62.688 C457.824,63.648 456.592,64.16 455.568,64.16 Z M455.632,63.04 C457.344,63.04 458.624,61.68 458.624,60 C458.624,58.336 457.344,56.96 455.632,56.96 C454,56.96 452.72,58.32 452.72,60 C452.72,61.68 454,63.04 455.632,63.04 Z M461.888,64 L461.888,56 L463.104,56 L463.104,57.088 C463.632,56.32 464.528,55.84 465.664,55.84 C467.104,55.84 468.064,56.512 468.512,57.472 C469.024,56.496 470.064,55.84 471.408,55.84 C473.712,55.84 474.976,57.248 474.976,59.296 L474.976,64 L473.728,64 L473.728,59.216 C473.728,57.888 472.832,56.944 471.392,56.944 C470.08,56.944 469.04,57.84 469.04,59.344 L469.04,64 L467.808,64 L467.808,59.072 C467.808,57.792 466.912,56.944 465.568,56.944 C464.16,56.944 463.12,57.888 463.12,59.488 L463.12,64 L461.888,64 Z M488.864,60.544 L488.864,59.456 L498.784,59.456 L498.784,60.544 L488.864,60.544 Z M498.548,60.544 L498.548,59.456 L508.468,59.456 L508.468,60.544 L498.548,60.544 Z M508.232,60.544 L508.232,59.456 L518.152,59.456 L518.152,60.544 L508.232,60.544 Z M196,86.3 L192.576,74.62 L193.904,74.62 L196.688,84.364 L199.92,74.62 L201.12,74.62 L204.32,84.38 L207.264,74.62 L208.544,74.62 L204.944,86.3 L203.68,86.3 L200.496,76.572 L197.28,86.3 L196,86.3 Z M214.096,86.46 C211.552,86.46 209.888,84.716 209.888,82.364 C209.888,79.964 211.632,78.14 214.032,78.14 C216.336,78.14 218.128,79.724 218.128,82.172 L218.128,82.7 L211.088,82.7 C211.248,84.284 212.496,85.356 214.096,85.356 C215.392,85.356 216.304,84.684 216.8,83.708 L217.872,84.236 C217.136,85.628 215.888,86.46 214.096,86.46 Z M214.032,79.244 C212.592,79.244 211.472,80.22 211.152,81.564 L216.864,81.564 C216.64,80.124 215.584,79.244 214.032,79.244 Z M227.888,86.46 C225.44,86.46 223.68,84.604 223.68,82.3 C223.68,79.9 225.52,78.14 227.872,78.14 C229.616,78.14 231.024,79.116 231.616,80.524 L230.496,81.004 C230,79.9 229.104,79.26 227.856,79.26 C226.176,79.26 224.928,80.62 224.928,82.3 C224.928,83.98 226.192,85.34 227.92,85.34 C229.248,85.34 230.112,84.54 230.56,83.484 L231.696,83.964 C231.056,85.42 229.792,86.46 227.888,86.46 Z M233.376,86.3 L233.376,78.3 L234.608,78.3 L234.608,79.452 C235.04,78.716 235.808,78.3 236.832,78.3 L237.824,78.3 L237.824,79.452 L236.832,79.452 C235.216,79.452 234.624,80.3 234.624,82.156 L234.624,86.3 L233.376,86.3 Z M243.392,86.46 C241.04,86.46 239.296,84.588 239.296,82.3 C239.296,80.012 241.008,78.14 243.392,78.14 C244.416,78.14 245.648,78.668 246.336,79.612 L246.336,78.3 L247.568,78.3 L247.568,86.3 L246.336,86.3 L246.336,84.988 C245.648,85.948 244.416,86.46 243.392,86.46 Z M243.456,85.34 C245.168,85.34 246.448,83.98 246.448,82.3 C246.448,80.636 245.168,79.26 243.456,79.26 C241.824,79.26 240.544,80.62 240.544,82.3 C240.544,83.98 241.824,85.34 243.456,85.34 Z M249.152,79.42 L249.152,78.3 L250.528,78.3 L250.528,77.676 C250.528,75.292 251.216,74.62 253.568,74.62 L253.68,74.62 L253.68,75.756 C251.984,75.756 251.776,76.06 251.776,77.692 L251.776,78.3 L253.68,78.3 L253.68,79.42 L251.776,79.42 L251.776,86.3 L250.528,86.3 L250.528,79.42 L249.152,79.42 Z M254.816,79.42 L254.816,78.3 L256.192,78.3 L256.192,76.412 L257.44,75.724 L257.44,78.3 L259.328,78.3 L259.328,79.42 L257.44,79.42 L257.44,83.228 C257.44,84.86 257.744,85.132 259.328,85.132 L259.328,86.3 L259.152,86.3 C256.816,86.3 256.192,85.628 256.192,83.244 L256.192,79.42 L254.816,79.42 Z M267.84,86.46 C266.448,86.46 265.28,85.884 264.496,84.924 L265.472,84.124 C266.064,84.86 266.864,85.372 267.888,85.372 C269.088,85.372 269.696,84.732 269.696,83.996 C269.696,83.148 268.64,82.988 267.536,82.732 C266.256,82.428 264.88,82.012 264.88,80.444 C264.88,79.26 266,78.124 267.792,78.124 C268.976,78.124 270.144,78.556 270.832,79.356 L269.92,80.124 C269.376,79.516 268.688,79.18 267.792,79.18 C266.688,79.18 266.096,79.756 266.096,80.428 C266.096,81.244 267.104,81.436 268.192,81.692 C269.488,81.996 270.912,82.396 270.912,83.996 C270.912,85.02 270.064,86.46 267.84,86.46 Z M276.656,86.46 C274.112,86.46 272.448,84.716 272.448,82.364 C272.448,79.964 274.192,78.14 276.592,78.14 C278.896,78.14 280.688,79.724 280.688,82.172 L280.688,82.7 L273.648,82.7 C273.808,84.284 275.056,85.356 276.656,85.356 C277.952,85.356 278.864,84.684 279.36,83.708 L280.432,84.236 C279.696,85.628 278.448,86.46 276.656,86.46 Z M276.592,79.244 C275.152,79.244 274.032,80.22 273.712,81.564 L279.424,81.564 C279.2,80.124 278.144,79.244 276.592,79.244 Z M286.336,86.46 C283.984,86.46 282.24,84.588 282.24,82.3 C282.24,80.012 283.952,78.14 286.336,78.14 C287.36,78.14 288.592,78.668 289.28,79.612 L289.28,78.3 L290.512,78.3 L290.512,86.3 L289.28,86.3 L289.28,84.988 C288.592,85.948 287.36,86.46 286.336,86.46 Z M286.4,85.34 C288.112,85.34 289.392,83.98 289.392,82.3 C289.392,80.636 288.112,79.26 286.4,79.26 C284.768,79.26 283.488,80.62 283.488,82.3 C283.488,83.98 284.768,85.34 286.4,85.34 Z M292.656,86.3 L292.656,78.3 L293.872,78.3 L293.872,79.388 C294.4,78.62 295.296,78.14 296.432,78.14 C297.872,78.14 298.832,78.812 299.28,79.772 C299.792,78.796 300.832,78.14 302.176,78.14 C304.48,78.14 305.744,79.548 305.744,81.596 L305.744,86.3 L304.496,86.3 L304.496,81.516 C304.496,80.188 303.6,79.244 302.16,79.244 C300.848,79.244 299.808,80.14 299.808,81.644 L299.808,86.3 L298.576,86.3 L298.576,81.372 C298.576,80.092 297.68,79.244 296.336,79.244 C294.928,79.244 293.888,80.188 293.888,81.788 L293.888,86.3 L292.656,86.3 Z M307.888,86.3 L307.888,74.62 L309.136,74.62 L309.136,86.3 L307.888,86.3 Z M315.2,86.46 C312.656,86.46 310.992,84.716 310.992,82.364 C310.992,79.964 312.736,78.14 315.136,78.14 C317.44,78.14 319.232,79.724 319.232,82.172 L319.232,82.7 L312.192,82.7 C312.352,84.284 313.6,85.356 315.2,85.356 C316.496,85.356 317.408,84.684 317.904,83.708 L318.976,84.236 C318.24,85.628 316.992,86.46 315.2,86.46 Z M315.136,79.244 C313.696,79.244 312.576,80.22 312.256,81.564 L317.968,81.564 C317.744,80.124 316.688,79.244 315.136,79.244 Z M323.776,86.46 C322.384,86.46 321.216,85.884 320.432,84.924 L321.408,84.124 C322,84.86 322.8,85.372 323.824,85.372 C325.024,85.372 325.632,84.732 325.632,83.996 C325.632,83.148 324.576,82.988 323.472,82.732 C322.192,82.428 320.816,82.012 320.816,80.444 C320.816,79.26 321.936,78.124 323.728,78.124 C324.912,78.124 326.08,78.556 326.768,79.356 L325.856,80.124 C325.312,79.516 324.624,79.18 323.728,79.18 C322.624,79.18 322.032,79.756 322.032,80.428 C322.032,81.244 323.04,81.436 324.128,81.692 C325.424,81.996 326.848,82.396 326.848,83.996 C326.848,85.02 326,86.46 323.776,86.46 Z M331.376,86.46 C329.984,86.46 328.816,85.884 328.032,84.924 L329.008,84.124 C329.6,84.86 330.4,85.372 331.424,85.372 C332.624,85.372 333.232,84.732 333.232,83.996 C333.232,83.148 332.176,82.988 331.072,82.732 C329.792,82.428 328.416,82.012 328.416,80.444 C328.416,79.26 329.536,78.124 331.328,78.124 C332.512,78.124 333.68,78.556 334.368,79.356 L333.456,80.124 C332.912,79.516 332.224,79.18 331.328,79.18 C330.224,79.18 329.632,79.756 329.632,80.428 C329.632,81.244 330.64,81.436 331.728,81.692 C333.024,81.996 334.448,82.396 334.448,83.996 C334.448,85.02 333.6,86.46 331.376,86.46 Z M344.08,86.46 C341.728,86.46 339.984,84.588 339.984,82.3 C339.984,80.012 341.696,78.14 344.08,78.14 C345.104,78.14 346.32,78.652 347.008,79.596 L347.008,74.62 L348.208,74.62 L348.208,86.3 L347.024,86.3 L347.024,84.988 C346.336,85.948 345.104,86.46 344.08,86.46 Z M344.144,85.34 C345.856,85.34 347.136,83.98 347.136,82.3 C347.136,80.636 345.856,79.26 344.144,79.26 C342.512,79.26 341.232,80.62 341.232,82.3 C341.232,83.98 342.512,85.34 344.144,85.34 Z M350.368,86.3 L350.368,78.3 L351.616,78.3 L351.616,86.3 L350.368,86.3 Z M350.368,76.908 L350.368,74.62 L351.616,74.62 L351.616,76.908 L350.368,76.908 Z M357.552,86.46 C355.2,86.46 353.456,84.588 353.456,82.3 C353.456,80.012 355.168,78.14 357.552,78.14 C358.576,78.14 359.808,78.668 360.496,79.612 L360.496,78.3 L361.728,78.3 L361.728,86.156 C361.728,88.588 360.192,90.204 357.776,90.204 C355.824,90.204 354.592,89.34 354.016,87.996 L355.232,87.596 C355.616,88.508 356.416,89.116 357.776,89.116 C359.52,89.116 360.512,87.9 360.512,86.188 L360.512,84.972 C359.84,85.932 358.592,86.46 357.552,86.46 Z M357.616,85.34 C359.328,85.34 360.608,83.98 360.608,82.3 C360.608,80.636 359.328,79.26 357.616,79.26 C355.984,79.26 354.704,80.62 354.704,82.3 C354.704,83.98 355.984,85.34 357.616,85.34 Z M363.888,86.3 L363.888,78.3 L365.136,78.3 L365.136,86.3 L363.888,86.3 Z M363.888,76.908 L363.888,74.62 L365.136,74.62 L365.136,76.908 L363.888,76.908 Z M366.752,79.42 L366.752,78.3 L368.128,78.3 L368.128,76.412 L369.376,75.724 L369.376,78.3 L371.264,78.3 L371.264,79.42 L369.376,79.42 L369.376,83.228 C369.376,84.86 369.68,85.132 371.264,85.132 L371.264,86.3 L371.088,86.3 C368.752,86.3 368.128,85.628 368.128,83.244 L368.128,79.42 L366.752,79.42 Z M376.88,86.46 C374.528,86.46 372.784,84.588 372.784,82.3 C372.784,80.012 374.496,78.14 376.88,78.14 C377.904,78.14 379.136,78.668 379.824,79.612 L379.824,78.3 L381.056,78.3 L381.056,86.3 L379.824,86.3 L379.824,84.988 C379.136,85.948 377.904,86.46 376.88,86.46 Z M376.944,85.34 C378.656,85.34 379.936,83.98 379.936,82.3 C379.936,80.636 378.656,79.26 376.944,79.26 C375.312,79.26 374.032,80.62 374.032,82.3 C374.032,83.98 375.312,85.34 376.944,85.34 Z M383.216,86.3 L383.216,74.62 L384.464,74.62 L384.464,86.3 L383.216,86.3 Z M394.528,86.46 C391.984,86.46 390.32,84.716 390.32,82.364 C390.32,79.964 392.064,78.14 394.464,78.14 C396.768,78.14 398.56,79.724 398.56,82.172 L398.56,82.7 L391.52,82.7 C391.68,84.284 392.928,85.356 394.528,85.356 C395.824,85.356 396.736,84.684 397.232,83.708 L398.304,84.236 C397.568,85.628 396.32,86.46 394.528,86.46 Z M394.464,79.244 C393.024,79.244 391.904,80.22 391.584,81.564 L397.296,81.564 C397.072,80.124 396.016,79.244 394.464,79.244 Z M399.68,86.3 L402.832,82.236 L399.824,78.3 L401.296,78.3 L403.616,81.34 L405.936,78.3 L407.424,78.3 L404.368,82.22 L407.552,86.3 L406.032,86.3 L403.584,83.164 L401.2,86.3 L399.68,86.3 Z M413.072,86.46 C411.952,86.46 410.8,86.012 410.144,85.084 L410.144,89.98 L408.944,89.98 L408.944,78.3 L410.128,78.3 L410.128,79.612 C410.8,78.668 412.032,78.14 413.072,78.14 C415.456,78.14 417.168,80.012 417.168,82.3 C417.168,84.588 415.424,86.46 413.072,86.46 Z M413.008,85.34 C414.64,85.34 415.92,83.98 415.92,82.3 C415.92,80.62 414.64,79.26 413.008,79.26 C411.296,79.26 410.016,80.636 410.016,82.3 C410.016,83.98 411.296,85.34 413.008,85.34 Z M422.912,86.46 C420.368,86.46 418.704,84.716 418.704,82.364 C418.704,79.964 420.448,78.14 422.848,78.14 C425.152,78.14 426.944,79.724 426.944,82.172 L426.944,82.7 L419.904,82.7 C420.064,84.284 421.312,85.356 422.912,85.356 C424.208,85.356 425.12,84.684 425.616,83.708 L426.688,84.236 C425.952,85.628 424.704,86.46 422.912,86.46 Z M422.848,79.244 C421.408,79.244 420.288,80.22 419.968,81.564 L425.68,81.564 C425.456,80.124 424.4,79.244 422.848,79.244 Z M428.8,86.3 L428.8,78.3 L430.032,78.3 L430.032,79.452 C430.464,78.716 431.232,78.3 432.256,78.3 L433.248,78.3 L433.248,79.452 L432.256,79.452 C430.64,79.452 430.048,80.3 430.048,82.156 L430.048,86.3 L428.8,86.3 Z M435.024,86.3 L435.024,78.3 L436.272,78.3 L436.272,86.3 L435.024,86.3 Z M435.024,76.908 L435.024,74.62 L436.272,74.62 L436.272,76.908 L435.024,76.908 Z M442.32,86.46 C439.776,86.46 438.112,84.716 438.112,82.364 C438.112,79.964 439.856,78.14 442.256,78.14 C444.56,78.14 446.352,79.724 446.352,82.172 L446.352,82.7 L439.312,82.7 C439.472,84.284 440.72,85.356 442.32,85.356 C443.616,85.356 444.528,84.684 445.024,83.708 L446.096,84.236 C445.36,85.628 444.112,86.46 442.32,86.46 Z M442.256,79.244 C440.816,79.244 439.696,80.22 439.376,81.564 L445.088,81.564 C444.864,80.124 443.808,79.244 442.256,79.244 Z M448.208,86.3 L448.208,78.3 L449.424,78.3 L449.424,79.484 C449.984,78.668 450.944,78.14 452.144,78.14 C454.288,78.14 455.616,79.548 455.616,81.852 L455.616,86.3 L454.368,86.3 L454.368,81.852 C454.368,80.3 453.568,79.26 451.968,79.26 C450.512,79.26 449.44,80.412 449.44,81.868 L449.44,86.3 L448.208,86.3 Z M461.632,86.46 C459.184,86.46 457.424,84.604 457.424,82.3 C457.424,79.9 459.264,78.14 461.616,78.14 C463.36,78.14 464.768,79.116 465.36,80.524 L464.24,81.004 C463.744,79.9 462.848,79.26 461.6,79.26 C459.92,79.26 458.672,80.62 458.672,82.3 C458.672,83.98 459.936,85.34 461.664,85.34 C462.992,85.34 463.856,84.54 464.304,83.484 L465.44,83.964 C464.8,85.42 463.536,86.46 461.632,86.46 Z M471.024,86.46 C468.48,86.46 466.816,84.716 466.816,82.364 C466.816,79.964 468.56,78.14 470.96,78.14 C473.264,78.14 475.056,79.724 475.056,82.172 L475.056,82.7 L468.016,82.7 C468.176,84.284 469.424,85.356 471.024,85.356 C472.32,85.356 473.232,84.684 473.728,83.708 L474.8,84.236 C474.064,85.628 472.816,86.46 471.024,86.46 Z M470.96,79.244 C469.52,79.244 468.4,80.22 468.08,81.564 L473.792,81.564 C473.568,80.124 472.512,79.244 470.96,79.244 Z M479.6,86.46 C478.208,86.46 477.04,85.884 476.256,84.924 L477.232,84.124 C477.824,84.86 478.624,85.372 479.648,85.372 C480.848,85.372 481.456,84.732 481.456,83.996 C481.456,83.148 480.4,82.988 479.296,82.732 C478.016,82.428 476.64,82.012 476.64,80.444 C476.64,79.26 477.76,78.124 479.552,78.124 C480.736,78.124 481.904,78.556 482.592,79.356 L481.68,80.124 C481.136,79.516 480.448,79.18 479.552,79.18 C478.448,79.18 477.856,79.756 477.856,80.428 C477.856,81.244 478.864,81.436 479.952,81.692 C481.248,81.996 482.672,82.396 482.672,83.996 C482.672,85.02 481.824,86.46 479.6,86.46 Z" id="A-creative-design-&amp;" transform="translate(355.348000, 71.182000) rotate(-360.000000) translate(-355.348000, -71.182000) "></path>
        </g>
    </g>
</svg>