<?xml version="1.0" encoding="UTF-8" standalone="no"?>
<svg width="1160px" height="582px" viewBox="0 0 1160 582" version="1.1" xmlns="http://www.w3.org/2000/svg" xmlns:xlink="http://www.w3.org/1999/xlink">
    <!-- Generator: Sketch 50.2 (55047) - http://www.bohemiancoding.com/sketch -->
    <title>Artboard</title>
    <desc>Created with Sketch.</desc>
    <defs></defs>
    <g id="Artboard" stroke="none" stroke-width="1" fill="none" fill-rule="evenodd">
        <g id="Group" fill="#FFFFFF" fill-rule="nonzero">
            <g id="white">
                <path d="M218.718566,484.755097 L218.718566,368.151845 L1.30969196,368.151845 L0,333.432898 L218.718566,6.55074456 L256.699633,6.55074456 L256.699633,334.087973 L325.458463,334.087973 L325.458463,368.151845 L256.699633,368.151845 L256.699633,484.755097 L218.718566,484.755097 Z M40.6004522,334.087973 L218.718566,334.087973 L218.718566,68.7828179 L40.6004522,334.087973 Z M590.208,456.586896 C660.931368,456.586896 715.753918,413.351982 715.753918,341.293791 L715.753918,156.562795 C715.753918,79.9190836 660.931368,34.7189461 591.517692,34.7189461 C520.794323,34.7189461 465.971773,82.5393814 465.971773,156.562795 L465.971773,338.673494 C465.971773,412.041832 519.484632,456.586896 590.208,456.586896 Z M590.862846,491.305842 C496.565022,491.305842 427.990706,432.349141 427.990706,338.673494 L427.990706,156.562795 C427.990706,64.1972966 502.458636,0 590.862846,0 C681.231595,0 753.734987,65.5074456 753.734987,156.562795 L753.734987,341.293791 C753.734987,436.279588 683.196133,491.305842 590.862846,491.305842 Z M1052.52928,484.755097 L1052.52928,368.151845 L835.120405,368.151845 L833.810713,333.432898 L1052.52928,6.55074456 L1090.51035,6.55074456 L1090.51035,334.087973 L1159.26918,334.087973 L1159.26918,368.151845 L1090.51035,368.151845 L1090.51035,484.755097 L1052.52928,484.755097 Z M874.411165,334.087973 L1052.52928,334.087973 L1052.52928,68.7828179 L874.411165,334.087973 Z" id="404"></path>
            </g>
        </g>
    </g>
</svg>