<svg width="23" height="23" xmlns="http://www.w3.org/2000/svg"><g fill="#FF001F" fill-rule="evenodd"><path d="M7.264 14.842l7.837-7.837.722.722-7.837 7.837z"/><path d="M7.216 7.67l.713-.712 7.941 7.941-.712.713z"/><path d="M22.598 11.51c0 6.051-4.971 10.957-11.104 10.957C5.362 22.467.39 17.561.39 11.51.39 5.458 5.362.552 11.494.552c6.133 0 11.104 4.906 11.104 10.958zm-.767 0c0-5.634-4.628-10.202-10.337-10.202S1.157 5.876 1.157 11.51c0 5.633 4.628 10.2 10.337 10.2 5.71 0 10.337-4.567 10.337-10.2z" fill-rule="nonzero"/></g></svg>