<svg width="132" height="133" xmlns="http://www.w3.org/2000/svg" xmlns:xlink="http://www.w3.org/1999/xlink"><defs><path id="a" d="M.085.16h12.447v8.422H.085z"/><path id="c" d="M.074.456h3.547v11.562H.074z"/></defs><g fill="none" fill-rule="evenodd" opacity=".2"><path fill="#FFF" d="M9.367 59.12L.39 57.705 0 60.177l11.223 1.768 1.269-8.076-2.244-.353zm4.113-8.681L2.916 46.248l3.157-7.98 2.067.82-2.242 5.667 2.143.85 1.973-4.987 2.067.822-1.973 4.986 2.218.88 2.272-5.742 2.067.82zm8.444-16.182l-1.276 1.804-11.99-2.866 1.594-2.255 8.245 2.201-4.813-7.055 1.556-2.202zm5.276-6.265l-7.843-8.233 1.809-1.73 7.842 8.235zM39.124 18.9l-8.503-3.187 3.847 6.121-2.088 1.317-6.052-9.629 1.95-1.23 8.232 3.088-3.727-5.928 2.088-1.316 6.052 9.629zM44.46 5.883l2.195-.706.894 2.786 2.797-.9.685 2.136-2.797.9.894 2.785-2.194.707-.894-2.786-2.797.9-.685-2.135 2.796-.9zm18.265-1.341c-.097-1.07-.89-1.552-2.101-1.443l-2.474.224.294 3.254 2.521-.228c1.212-.11 1.849-.82 1.763-1.775l-.003-.032zm.624 7.466l-2.751-3.407-1.956.177.326 3.626-2.488.226-1.021-11.332L60.63.83c2.667-.24 4.394 1.024 4.604 3.354l.003.032c.165 1.83-.718 3.068-2.108 3.732l3.129 3.797-2.91.263zm6.701.143L71.186.832l2.486.252-1.137 11.318zm7.07.881l3.165-10.93 8.231 2.391-.62 2.14-5.845-1.698-.643 2.216 5.146 1.494-.62 2.14-5.145-1.495-.665 2.295 5.925 1.72-.62 2.14zm16.503 6.8c-3.06-1.779-3.92-5.154-2.235-8.064l.017-.028c1.62-2.798 5.124-3.825 8.1-2.096 1.769 1.028 2.559 2.125 3.079 3.593l-2.315.853c-.391-1.073-.853-1.83-1.99-2.49-1.573-.914-3.628-.247-4.598 1.426l-.016.028c-1.042 1.8-.573 3.838 1.168 4.85.787.457 1.603.667 2.378.592l.814-1.406-2.176-1.264 1.083-1.87 4.268 2.48-2.476 4.274c-1.507.27-3.304.166-5.101-.878m13.07 10.396l1.233-9.01-5.117 5.106-1.741-1.751 8.048-8.031 1.627 1.634-1.198 8.724 4.956-4.946 1.742 1.75-8.05 8.033zm4.073 5.025l9.766-5.812 4.379 7.378-1.912 1.138-3.11-5.241-1.98 1.18 2.736 4.611-1.912 1.137-2.736-4.61-2.05 1.22 3.15 5.31-1.912 1.137zm15.185 15.41c1.024-.319 1.328-1.197.967-2.36l-.738-2.375-3.114.97.752 2.42c.361 1.165 1.188 1.64 2.102 1.355l.031-.01zm-7.158 2.18l2.748-3.41-.583-1.878-3.471 1.081-.743-2.39 10.848-3.38 1.543 4.967c.795 2.561-.076 4.517-2.308 5.213l-.03.009c-1.752.546-3.146-.058-4.086-1.28l-3.05 3.86-.868-2.792zm11.282 8.347l.16 2.303-2.914.203.204 2.935-2.233.156-.205-2.935-2.914.205-.16-2.303 2.913-.204-.204-2.934 2.234-.156.204 2.934z"/><g transform="translate(119.2 71.11)"><mask id="b" fill="#fff"><use xlink:href="#a"/></mask><path fill="#FFF" mask="url(#b)" d="M1.296.16l11.236 1.686-.37 2.476-8.989-1.35-.84 5.61-2.248-.337z"/></g><path fill="#FFF" d="M118.322 82.786l10.593 4.116-3.1 8.003-2.073-.806 2.202-5.684-2.149-.835-1.938 5.002-2.073-.806 1.938-5.001-2.225-.865-2.231 5.76-2.074-.806zm-8.335 16.249l1.262-1.813 12.011 2.784-1.578 2.265-8.26-2.145 4.862 7.024-1.541 2.213zm-5.237 6.305l7.897 8.18-1.796 1.74-7.897-8.179zm-11.854 9.173l8.527 3.124-3.892-6.093 2.078-1.33 6.121 9.584-1.94 1.243-8.254-3.029 3.769 5.902-2.078 1.332-6.122-9.585zm-5.012 12.941l-2.17.778-.985-2.756-2.766.992-.754-2.112 2.765-.992-.984-2.755 2.17-.777.985 2.755 2.766-.992.754 2.112-2.765.992zm-18.487 1.58c.104 1.067.9 1.545 2.112 1.427l2.47-.242-.316-3.251-2.52.247c-1.211.118-1.842.833-1.749 1.786l.003.033zm-.678-7.461l2.776 3.386 1.954-.191-.352-3.624 2.487-.242 1.102 11.323-5.169.504c-2.664.26-4.4-.99-4.628-3.319l-.003-.032c-.177-1.83.695-3.073 2.082-3.747l-3.156-3.775 2.907-.283z"/><g transform="translate(58.4 120.785)"><mask id="d" fill="#fff"><use xlink:href="#c"/></mask><path fill="#FFF" mask="url(#d)" d="M3.621.69L2.563 12.019l-2.489-.234L1.132.456z"/></g><path fill="#FFF" d="M54.95 120.647l-3.085 10.95-8.248-2.331.604-2.143 5.858 1.655.626-2.22-5.155-1.457.604-2.145 5.154 1.458.648-2.3-5.935-1.678.604-2.143zm-16.559-6.687c3.071 1.756 3.955 5.124 2.289 8.045l-.016.028c-1.602 2.808-5.097 3.86-8.085 2.152-1.775-1.016-2.572-2.108-3.102-3.57l2.309-.871c.398 1.071.865 1.824 2.007 2.477 1.578.902 3.629.222 4.586-1.457l.016-.028c1.03-1.807.546-3.842-1.201-4.842-.79-.45-1.606-.656-2.381-.576l-.805 1.412 2.184 1.249-1.07 1.876-4.284-2.448 2.447-4.291c1.505-.28 3.302-.189 5.106.843m-13.137-10.302l-1.17 9.015 5.08-5.14 1.752 1.738-7.991 8.085-1.638-1.624 1.138-8.727-4.92 4.978-1.753-1.737 7.99-8.086zm-4.112-4.998l-9.723 5.882-4.43-7.345 1.903-1.151 3.146 5.216 1.973-1.193-2.77-4.59 1.903-1.151 2.77 4.59 2.042-1.235-3.19-5.286 1.904-1.151zM5.856 83.37c-1.02.325-1.32 1.205-.95 2.366l.754 2.37 3.108-.992-.769-2.416c-.37-1.161-1.2-1.63-2.112-1.339l-.031.01zm7.142-2.23l-2.724 3.429.596 1.873 3.464-1.106.758 2.385L4.27 91.176l-1.576-4.954c-.814-2.556.044-4.518 2.27-5.229l.03-.01c1.748-.558 3.145.037 4.095 1.252l3.022-3.882.887 2.788zM1.654 72.854l-.177-2.301 2.913-.224-.225-2.933 2.233-.172.225 2.934 2.912-.225.177 2.302-2.913.224.225 2.932-2.233.172-.224-2.933z"/></g></svg>